<?xml version="1.0" encoding="UTF-8" standalone="no"?>
<svg
   id="svg"
   version="1.1"
   width="394.66751"
   height="394.66751"
   viewBox="0 0 394.66752 394.66751"
   sodipodi:docname="FAPLogo-grey.svg"
   inkscape:version="1.1.2 (0a00cf5339, 2022-02-04)"
   xmlns:inkscape="http://www.inkscape.org/namespaces/inkscape"
   xmlns:sodipodi="http://sodipodi.sourceforge.net/DTD/sodipodi-0.dtd"
   xmlns="http://www.w3.org/2000/svg"
   xmlns:svg="http://www.w3.org/2000/svg">
  <defs
     id="defs9" />
  <sodipodi:namedview
     id="namedview7"
     pagecolor="#ffffff"
     bordercolor="#666666"
     borderopacity="1.0"
     inkscape:pageshadow="2"
     inkscape:pageopacity="0.0"
     inkscape:pagecheckerboard="0"
     showgrid="false"
     inkscape:zoom="1.3823938"
     inkscape:cx="-685.76696"
     inkscape:cy="243.41834"
     inkscape:window-width="3366"
     inkscape:window-height="1376"
     inkscape:window-x="0"
     inkscape:window-y="0"
     inkscape:window-maximized="1"
     inkscape:current-layer="layer1" />
  <g
     inkscape:groupmode="layer"
     id="layer1"
     inkscape:label="Circle"
     transform="translate(39.889282,53.812744)">
    <ellipse
       style="fill:#ffffff;fill-rule:evenodd"
       id="path39"
       cx="157.44447"
       cy="143.52101"
       rx="197.334"
       ry="197.33376" />
  </g>
  <g
     inkscape:groupmode="layer"
     id="layer2"
     inkscape:label="Logo"
     style="display:inline"
     transform="translate(39.889282,53.812744)">
    <g
       id="svgg"
       transform="translate(-43.496216,-2.362977)">
      <path
         id="path0"
         d="m 256.201,2.523 c -0.114,0.114 -29.373,0.214 -65.02,0.223 l -64.814,0.015 -3.711,0.94 c -6.362,1.61 -7.732,2.07 -11.438,3.84 -25.16,12.009 -36.011,40.327 -26.449,69.022 0.937,2.808 8.823,29.845 11.395,39.062 0.21,0.752 1.671,5.938 3.248,11.523 3.016,10.686 5.666,20.385 5.666,20.741 0,0.116 -1.011,-0.646 -2.246,-1.694 -22.932,-19.456 -54.845,-10.191 -58.894,17.097 -2.142,14.438 3.174,23.255 23.25,38.567 2.041,1.557 4.589,3.602 5.664,4.545 l 1.953,1.716 0.218,26.311 c 0.167,20.051 0.34,26.683 0.727,27.874 1.757,5.398 5.274,10.189 9.295,12.664 1.917,1.179 2.004,1.311 2.597,3.936 2.018,8.935 4.134,10.157 17.577,10.158 h 9.937 l 1.895,-2.075 c 1.042,-1.142 2.586,-3.501 3.432,-5.242 l 1.538,-3.167 19.361,-0.163 c 10.648,-0.089 45.97,-0.147 78.493,-0.129 l 59.133,0.033 1.894,3.711 c 1.321,2.589 2.457,4.217 3.758,5.385 l 1.863,1.675 10.995,-0.112 c 12.452,-0.127 11.526,0.112 13.945,-3.595 1.269,-1.945 2.717,-5.518 3.179,-7.845 0.174,-0.877 0.721,-1.462 2.168,-2.326 9.681,-5.77 10.569,-9.262 10.531,-41.424 -0.015,-12.461 -0.02,-23.362 -0.012,-24.225 0.016,-1.745 -1.32,-0.526 13.217,-12.048 13.935,-11.043 17.868,-17.645 17.839,-29.938 -0.058,-24.582 -25.903,-39.38 -48.712,-27.889 -2.08,1.048 -9.682,5.976 -10.945,7.094 -0.377,0.335 -0.759,0.534 -0.849,0.445 -0.204,-0.204 2.509,-10.1 8.878,-32.384 2.797,-9.785 11.396,-40.281 12.006,-42.578 C 324.261,51.562 318.661,30.09 304.261,16.659 295.675,8.652 285.794,4.224 273.242,2.758 270.139,2.396 256.516,2.208 256.201,2.523 m -16.58,25.435 c 0.486,0.486 0.613,1.539 0.613,5.061 v 4.448 l 15.918,0.114 c 18.174,0.13 17.718,0.053 21.602,3.687 4.483,4.193 5.042,6.53 5.052,21.115 0.008,13.08 -0.171,14.146 -3.05,18.135 -4.14,5.738 -6.157,6.201 -27.027,6.201 H 236.07 l -0.555,1.074 c -2.062,3.997 -7.505,10.496 -10.535,12.579 -0.741,0.509 -1.787,1.32 -2.324,1.803 -0.537,0.482 -2.804,1.593 -5.039,2.469 -2.234,0.876 -4.446,1.844 -4.914,2.151 -1.957,1.282 -4.89,14.471 -4.89,21.984 0,1.889 -0.553,1.675 6.445,2.505 25.94,3.076 50.577,20.653 62.096,44.302 l 1.713,3.516 -0.746,4.296 c -1.827,10.522 -1.815,19.219 0.037,28.438 0.207,1.031 0.376,2.129 0.376,2.441 0,0.487 -2.549,0.567 -18.138,0.567 h -18.139 l 0.796,-2.355 c 2.92127,-9.76569 -4.48735,-13.3483 -7.818,-15.359 l -1.84542,-1.26616 0.50842,-19.14384 -0.09,-17.931 -0.977,-1.738 c -1.385,-2.465 -2.782,-3.148 -6.996,-3.421 -3.517,-0.228 -3.524,-0.23 -4.463,-1.636 -2.75,-4.114 -12.196,-12.935 -13.192,-12.32 -0.79,0.489 -0.044,6.552 1.239,10.067 0.631,1.729 1.147,3.285 1.147,3.459 0,0.173 -3.785,0.316 -8.411,0.316 -9.565,0 -9.403,0.06 -8.072,-3.035 1.145,-2.662 2.03,-6.806 2.03,-9.51 v -2.34 l -2.967,2.071 c -3.074,2.146 -8.868,7.844 -11.062,10.878 l -1.258,1.74 -3.587,0.196 c -3.913,0.214 -4.906,0.67 -6.495,2.981 -1.633,2.376 -1.695,3.355 -1.397,22.238 l 0.284,17.993 -2.655,1.307 c -6.501,3.2 -8.6,7.744 -6.61,14.305 0.32,1.055 0.584,2.05 0.586,2.211 0.005,0.321 -35.68,0.415 -36,0.095 -0.109,-0.108 0.154,-1.91 0.585,-4.004 1.29,-6.272 1.152,-20.406 -0.279,-28.523 l -0.57,-3.232 1.329,-2.823 c 11.649,-24.742 38.016,-42.599 67.039,-45.4 l 2.608,-0.251 -0.17,-1.242 c -0.093,-0.683 -0.436,-3.263 -0.762,-5.733 -0.521,-3.94 -2.198,-12.987 -2.773,-14.953 -0.19,-0.651 -6.515,-4.102 -8.737,-4.768 -0.537,-0.16 -1.536,-0.711 -2.22,-1.223 -0.684,-0.512 -1.431,-0.931 -1.661,-0.931 -1.397,0 -8.836,-8.63 -11.347,-13.162 l -0.907,-1.639 -17.421,-0.119 -17.421,-0.12 -2.654,-1.253 c -7.744,-3.655 -8.674,-6.179 -8.674,-23.551 V 48.242 l 1.02,-2.148 c 3.747,-7.898 7.483,-9.095 27.789,-8.907 l 12.793,0.118 v -4.72 c 0,-2.596 0.117,-4.838 0.26,-4.981 0.635,-0.635 77,-0.288 77.642,0.354 M 134.905,49.994 c -1.989,0.809 -2.092,1.402 -2.092,11.985 0,9.851 0,9.853 0.942,10.948 l 0.942,1.096 h 13.609 13.608 V 61.914 49.805 l -13.086,-0.076 c -7.197,-0.041 -13.463,0.078 -13.923,0.265 m 105.533,-0.008 c -0.128,0.207 -0.11,5.744 0.039,12.305 l 0.271,11.928 h 13.044 c 17.637,0 16.136,1.194 16.117,-12.819 -0.013,-10.746 -0.033,-10.831 -2.594,-11.425 -2.065,-0.479 -26.58,-0.469 -26.877,0.011 m -27.357,118.907 c 3.537,1.619 3.713,2.151 3.714,11.225 0.003,12.259 -0.973,13.003 -16.754,12.783 -14.319,-0.2 -14.885,-0.711 -14.885,-13.434 v -7.592 l 1.527,-1.526 c 1.164,-1.165 2.021,-1.627 3.613,-1.95 1.148,-0.232 2.438,-0.505 2.868,-0.606 2.876,-0.675 17.845,0.151 19.917,1.1"
         stroke="none"
         fill="#7c1fff"
         fill-rule="evenodd"
         sodipodi:nodetypes="ccccccccscccccccccccccccccccccccccccscccccccccscccccsccccccscccscsscccccccccccsscsccccccsccsccccccccccccsscccccsccccssccscccccccccccscsccccsccccc"
         style="fill:#4d4d4d" />
      <path
         id="path1"
         d="m 132.335,2.63 c 0.918,0.083 2.325,0.082 3.125,-0.002 0.8,-0.084 0.048,-0.152 -1.671,-0.15 -1.719,10e-4 -2.373,0.07 -1.454,0.152 m 117.958,0.002 c 1.128,0.079 2.974,0.079 4.102,0 1.127,-0.079 0.205,-0.144 -2.051,-0.144 -2.256,0 -3.179,0.065 -2.051,0.144 m -88.314,24.972 c -0.143,0.143 -0.26,2.385 -0.26,4.981 v 4.72 l -12.793,-0.118 c -20.306,-0.188 -24.042,1.009 -27.789,8.907 l -1.02,2.148 v 13.477 c 0,17.372 0.93,19.896 8.674,23.551 l 2.654,1.253 17.421,0.12 17.421,0.119 0.907,1.639 c 2.511,4.532 9.95,13.162 11.347,13.162 0.23,0 0.977,0.419 1.661,0.931 0.684,0.512 1.683,1.063 2.22,1.223 2.222,0.666 8.547,4.117 8.737,4.768 1.45,4.96 3.934,21.626 3.285,22.034 -0.236,0.148 -0.181,0.316 0.136,0.422 1.669,0.556 0.727,14.837 -1.287,19.518 -1.342,3.12 -1.51,3.057 8.062,3.057 4.626,0 8.411,-0.143 8.411,-0.316 0,-0.174 -0.512,-1.719 -1.138,-3.434 -1.145,-3.137 -1.973,-8.997 -1.402,-9.922 0.159,-0.257 0.259,-2.384 0.221,-4.726 -0.037,-2.342 0.079,-4.259 0.257,-4.259 0.178,0 0.26,-0.679 0.18,-1.51 -0.337,-3.539 1.26,-13.752 2.962,-18.934 1.167,-3.553 1.211,-3.591 6.771,-5.771 2.235,-0.876 4.502,-1.987 5.039,-2.469 0.537,-0.483 1.583,-1.294 2.324,-1.803 3.03,-2.083 8.473,-8.582 10.535,-12.579 l 0.555,-1.074 h 16.659 c 20.87,0 22.887,-0.463 27.027,-6.201 2.879,-3.989 3.058,-5.055 3.05,-18.135 -0.01,-14.585 -0.569,-16.922 -5.052,-21.115 -3.884,-3.634 -3.428,-3.557 -21.602,-3.687 l -15.918,-0.114 v -4.448 c 0,-3.522 -0.127,-4.575 -0.613,-5.061 -0.642,-0.642 -77.007,-0.989 -77.642,-0.354 m -0.065,34.31 v 12.109 h -13.608 -13.609 l -0.942,-1.096 c -1.23,-1.43 -1.499,-20.005 -0.315,-21.696 1.052,-1.502 1.856,-1.58 15.388,-1.502 l 13.086,0.076 V 61.914 M 267.315,49.975 c 2.561,0.594 2.581,0.679 2.594,11.425 0.019,14.013 1.52,12.819 -16.117,12.819 h -13.044 l -0.271,-11.928 c -0.149,-6.561 -0.167,-12.098 -0.039,-12.305 0.297,-0.48 24.812,-0.49 26.877,-0.011 m -59.585,4.664 c 17.155,6.425 15.091,28.88 -3.042,33.114 -11.128,2.597 -23.013,-7.986 -21.463,-19.112 1.527,-10.954 13.848,-17.994 24.505,-14.002 m -9.449,7.242 c -0.838,0.312 -1.679,0.799 -1.87,1.081 -2.152,3.197 -2.126,5.677 0.065,6.027 2.733,0.437 2.941,0.819 1.792,3.288 -1.54,3.309 -1.044,5.901 1.416,7.4 4.604,2.808 8.832,-2.663 5.758,-7.453 -1.037,-1.616 -1.194,-2.09 -0.742,-2.239 2.067,-0.68 3.917,-4.002 3.264,-5.859 -0.796,-2.263 -6.241,-3.525 -9.683,-2.245 m -5.117,105.912 c -0.43,0.101 -1.72,0.374 -2.868,0.606 -1.592,0.323 -2.449,0.785 -3.613,1.95 l -1.527,1.526 v 7.592 c 0,12.723 0.566,13.234 14.885,13.434 15.781,0.22 16.757,-0.524 16.754,-12.783 -0.002,-11.72 -0.448,-12.105 -14.349,-12.355 -4.675,-0.084 -8.852,-0.071 -9.282,0.03 m -24.66,15.801 c 0,2.256 0.064,3.178 0.143,2.051 0.079,-1.128 0.079,-2.974 0,-4.102 -0.079,-1.128 -0.143,-0.205 -0.143,2.051 m -10.594,94.811 c 0.591,0.089 1.558,0.089 2.149,0 0.59,-0.09 0.107,-0.163 -1.075,-0.163 -1.181,0 -1.665,0.073 -1.074,0.163 m 4.499,0.003 c 0.702,0.087 1.757,0.085 2.344,-0.004 0.587,-0.089 0.013,-0.16 -1.276,-0.158 -1.289,0.002 -1.77,0.075 -1.068,0.162 m 57.64,0.01 c 9.63,0.058 25.275,0.058 34.766,0 9.49,-0.058 1.611,-0.106 -17.51,-0.106 -19.121,0 -26.886,0.048 -17.256,0.106 m 72.454,10.936 c 2.644,0.068 6.863,0.068 9.375,0 2.512,-0.068 0.349,-0.123 -4.808,-0.123 -5.156,0 -7.211,0.056 -4.567,0.123"
         stroke="none"
         fill="#f8c973"
         fill-rule="evenodd"
         sodipodi:nodetypes="csccccsccsccccscccccsscccccsssccscscccccscccccssccccccccccccscccccccccccccccccccccsccccccscccsccssccssccssc" />
    </g>
  </g>
</svg>
