<?xml version="1.0" encoding="UTF-8" standalone="no"?>
<svg
   id="svg"
   version="1.1"
   width="338.87131"
   height="310.77182"
   viewBox="0 0 338.87132 310.77182"
   sodipodi:docname="FAPLogo-grey-nohandles.svg"
   inkscape:version="1.1.2 (0a00cf5339, 2022-02-04)"
   xmlns:inkscape="http://www.inkscape.org/namespaces/inkscape"
   xmlns:sodipodi="http://sodipodi.sourceforge.net/DTD/sodipodi-0.dtd"
   xmlns="http://www.w3.org/2000/svg"
   xmlns:svg="http://www.w3.org/2000/svg">
  <defs
     id="defs9" />
  <sodipodi:namedview
     id="namedview7"
     pagecolor="#ffffff"
     bordercolor="#666666"
     borderopacity="1.0"
     inkscape:pageshadow="2"
     inkscape:pageopacity="0.0"
     inkscape:pagecheckerboard="0"
     showgrid="false"
     inkscape:zoom="1.9550001"
     inkscape:cx="-342.71099"
     inkscape:cy="90.281327"
     inkscape:window-width="3366"
     inkscape:window-height="1376"
     inkscape:window-x="0"
     inkscape:window-y="0"
     inkscape:window-maximized="1"
     inkscape:current-layer="g10563" />
  <g
     inkscape:groupmode="layer"
     id="g10563"
     inkscape:label="Chair copy"
     style="display:inline"
     transform="translate(11.969792,11.98741)">
    <g
       id="g10561"
       transform="translate(-43.496216,-2.362977)">
      <path
         id="path10568"
         style="fill:#999999"
         d="m 258.43359,-9.6230469 c -7.85884,0.381884 -15.72963,0.1858166 -23.59412,0.2842434 -36.41301,0.1453185 -72.82733,0.0237 -109.23986,0.143491 -2.79445,0.2504047 -5.44362,1.2481278 -8.17074,1.8442188 -5.13536,1.3144444 -10.15839,3.1534919 -14.76535,5.7977749 -14.283436,7.767349 -25.411379,21.2051658 -30.183051,36.7681628 -4.487745,14.218155 -4.032672,29.788398 0.527271,43.927985 4.59897,15.215568 8.985606,30.493931 13.298901,45.792721 -10.735822,-2.27811 -22.333064,-0.98033 -32.019852,4.30153 -8.663258,4.64813 -15.682324,12.36001 -19.271456,21.53482 -3.308356,8.172 -4.380958,17.30647 -2.712028,25.98384 1.461869,7.00365 5.133035,13.38302 9.836739,18.71219 6.035961,7.00613 13.498792,12.54772 20.713472,18.25668 0.18842,16.01425 0.08822,32.03773 0.709008,48.04259 0.55809,5.52105 3.164533,10.61584 6.337975,15.08184 1.858458,2.51196 4.036459,4.79514 6.515517,6.70174 1.248717,4.97638 3.6846,9.91215 7.939453,12.97461 4.587377,3.41922 10.495769,4.36144 16.064861,4.42332 5.7769,0.19202 11.56271,0.13368 17.33918,0.0458 2.87916,-0.24737 5.08659,-2.37149 6.85094,-4.47453 1.73052,-1.85937 3.30934,-3.86183 4.68447,-5.99847 47.06352,-0.3476 94.12865,-0.20128 141.19297,-0.20209 0.52343,0.0969 1.30438,-0.27262 1.52507,0.36831 2.20736,3.50145 5.12733,6.565 8.54517,8.89937 1.89035,1.21594 4.18299,1.75834 6.41605,1.49527 7.38456,-0.13908 14.7867,0.0599 22.15515,-0.50525 4.70323,-0.63944 9.17346,-3.33033 11.60592,-7.45763 1.90175,-2.76691 3.38118,-5.81528 4.46397,-8.99055 4.54998,-2.92924 8.49867,-7.0132 10.55365,-12.08077 2.87989,-6.76239 3.10911,-14.23352 3.38722,-21.46877 0.34198,-11.75076 0.14804,-23.508 0.1854,-35.26179 0.12264,-0.542 -0.26823,-1.32747 0.23115,-1.69086 7.83082,-6.36834 16.27777,-12.22536 22.55269,-20.24931 3.8683,-4.94948 6.59298,-10.82321 7.58234,-17.04381 1.30068,-7.5261 0.81154,-15.3846 -1.52761,-22.66172 -2.7766,-8.54722 -8.34274,-16.14129 -15.64243,-21.381 -8.57511,-6.24174 -19.40301,-9.28373 -29.9747,-8.41555 -2.0549,0.14809 -4.09914,0.43755 -6.11724,0.85123 4.81406,-17.12097 9.78172,-34.195221 14.41008,-51.365901 4.12189,-17.043936 1.86981,-35.711014 -6.90582,-50.968708 -7.97235,-13.8770165 -21.38161,-24.5680426 -36.77291,-29.0274923 -7.49451,-2.2600022 -15.36029,-3.0456901 -23.16643,-2.9562169 -1.85356,-0.032589 -3.70729,-0.035278 -5.56102,-0.031289 z" />
    </g>
  </g>
  <g
     inkscape:groupmode="layer"
     id="layer2"
     inkscape:label="Chair"
     style="display:inline"
     transform="translate(11.969792,11.98741)"
     sodipodi:insensitive="true">
    <g
       id="svgg"
       transform="translate(-43.496216,-2.362977)">
      <path
         id="path0"
         d="m 256.201,2.523 c -0.114,0.114 -29.373,0.214 -65.02,0.223 l -64.814,0.015 -3.711,0.94 c -6.362,1.61 -7.732,2.07 -11.438,3.84 -25.16,12.009 -36.011,40.327 -26.449,69.022 0.937,2.808 8.823,29.845 11.395,39.062 0.21,0.752 1.671,5.938 3.248,11.523 3.016,10.686 5.666,20.385 5.666,20.741 0,0.116 -1.011,-0.646 -2.246,-1.694 -22.932,-19.456 -54.845,-10.191 -58.894,17.097 -2.142,14.438 3.174,23.255 23.25,38.567 2.041,1.557 4.589,3.602 5.664,4.545 l 1.953,1.716 0.218,26.311 c 0.167,20.051 0.34,26.683 0.727,27.874 1.757,5.398 5.274,10.189 9.295,12.664 1.917,1.179 2.004,1.311 2.597,3.936 2.018,8.935 4.134,10.157 17.577,10.158 h 9.937 l 1.895,-2.075 c 1.042,-1.142 2.586,-3.501 3.432,-5.242 l 1.538,-3.167 19.361,-0.163 c 10.648,-0.089 45.97,-0.147 78.493,-0.129 l 59.133,0.033 1.894,3.711 c 1.321,2.589 2.457,4.217 3.758,5.385 l 1.863,1.675 10.995,-0.112 c 12.452,-0.127 11.526,0.112 13.945,-3.595 1.269,-1.945 2.717,-5.518 3.179,-7.845 0.174,-0.877 0.721,-1.462 2.168,-2.326 9.681,-5.77 10.569,-9.262 10.531,-41.424 -0.015,-12.461 -0.02,-23.362 -0.012,-24.225 0.016,-1.745 -1.32,-0.526 13.217,-12.048 13.935,-11.043 17.868,-17.645 17.839,-29.938 -0.058,-24.582 -25.903,-39.38 -48.712,-27.889 -2.08,1.048 -9.682,5.976 -10.945,7.094 -0.377,0.335 -0.759,0.534 -0.849,0.445 -0.204,-0.204 2.509,-10.1 8.878,-32.384 2.797,-9.785 11.396,-40.281 12.006,-42.578 C 324.261,51.562 318.661,30.09 304.261,16.659 295.675,8.652 285.794,4.224 273.242,2.758 270.139,2.396 256.516,2.208 256.201,2.523"
         stroke="none"
         fill="#7c1fff"
         fill-rule="evenodd"
         sodipodi:nodetypes="ccccccccscccccccccccccccccccccccccccscccccccc"
         style="fill:#4d4d4d" />
    </g>
  </g>
  <g
     inkscape:groupmode="layer"
     id="layer4"
     inkscape:label="Trophy"
     style="display:inline"
     sodipodi:insensitive="true"
     transform="translate(-27.91949,-41.825334)">
    <path
       id="path1"
       d="m 141.31693,80.59227 c -7.81536,45.58749 16.89236,57.35031 46.23514,79.3425 1.45,4.96 3.934,21.626 3.285,22.034 -3.24723,11.23614 -3.27135,11.25165 -14.28174,22.54259 -6.62359,1.15811 -9.29691,0.75416 -11.53037,5.73536 -1.52153,3.50345 0.499,34.09738 0.0578,37.85149 -0.44488,3.7857 -7.29791,2.72666 -9.50142,7.15014 -1.69031,3.39325 0.25153,7.01639 0.96677,10.73715 l 81.30192,0.30827 c 2.08591,-6.26303 1.35344,-9.19621 0.0135,-12.00939 -2.17153,-4.55908 -8.64176,-2.49705 -8.79102,-7.01592 -0.1357,-4.10837 2.05825,-32.56138 0.1496,-36.85607 -1.90864,-4.29469 -2.53512,-4.94426 -11.2196,-5.72527 -11.29549,-10.35518 -12.28185,-10.60933 -13.84537,-22.90829 -0.337,-3.539 1.42792,-17.0382 3.12992,-22.2202 37.94805,-26.08233 52.39326,-33.12524 46.35603,-79.677318"
       stroke="none"
       fill="#f8c973"
       fill-rule="evenodd"
       sodipodi:nodetypes="cccccssccssscccc"
       style="display:inline" />
  </g>
</svg>
