<?xml version="1.0" encoding="UTF-8" standalone="no"?>
<svg
   id="svg"
   version="1.1"
   width="394.66751"
   height="394.66751"
   viewBox="0 0 394.66752 394.66751"
   sodipodi:docname="FAPLogo-grey.svg"
   inkscape:version="1.1.2 (0a00cf5339, 2022-02-04)"
   xmlns:inkscape="http://www.inkscape.org/namespaces/inkscape"
   xmlns:sodipodi="http://sodipodi.sourceforge.net/DTD/sodipodi-0.dtd"
   xmlns="http://www.w3.org/2000/svg"
   xmlns:svg="http://www.w3.org/2000/svg">
  <defs
     id="defs9" />
  <sodipodi:namedview
     id="namedview7"
     pagecolor="#ffffff"
     bordercolor="#666666"
     borderopacity="1.0"
     inkscape:pageshadow="2"
     inkscape:pageopacity="0.0"
     inkscape:pagecheckerboard="0"
     showgrid="false"
     inkscape:zoom="0.6911969"
     inkscape:cx="-1597.2294"
     inkscape:cy="630.06648"
     inkscape:window-width="3366"
     inkscape:window-height="1376"
     inkscape:window-x="0"
     inkscape:window-y="0"
     inkscape:window-maximized="1"
     inkscape:current-layer="layer2" />
  <g
     inkscape:groupmode="layer"
     id="layer1"
     inkscape:label="Circle"
     transform="translate(39.889282,53.812744)"
     style="display:inline">
    <ellipse
       style="fill:#ffffff;fill-rule:evenodd"
       id="path39"
       cx="157.44447"
       cy="143.52101"
       rx="197.334"
       ry="197.33376" />
  </g>
  <g
     inkscape:groupmode="layer"
     id="layer2"
     inkscape:label="Chair"
     style="display:inline"
     transform="translate(39.889282,53.812744)">
    <g
       id="svgg"
       transform="translate(-43.496216,-2.362977)">
      <path
         id="path0"
         d="m 256.201,2.523 c -0.114,0.114 -29.373,0.214 -65.02,0.223 l -64.814,0.015 -3.711,0.94 c -6.362,1.61 -7.732,2.07 -11.438,3.84 -25.16,12.009 -36.011,40.327 -26.449,69.022 0.937,2.808 8.823,29.845 11.395,39.062 0.21,0.752 1.671,5.938 3.248,11.523 3.016,10.686 5.666,20.385 5.666,20.741 0,0.116 -1.011,-0.646 -2.246,-1.694 -22.932,-19.456 -54.845,-10.191 -58.894,17.097 -2.142,14.438 3.174,23.255 23.25,38.567 2.041,1.557 4.589,3.602 5.664,4.545 l 1.953,1.716 0.218,26.311 c 0.167,20.051 0.34,26.683 0.727,27.874 1.757,5.398 5.274,10.189 9.295,12.664 1.917,1.179 2.004,1.311 2.597,3.936 2.018,8.935 4.134,10.157 17.577,10.158 h 9.937 l 1.895,-2.075 c 1.042,-1.142 2.586,-3.501 3.432,-5.242 l 1.538,-3.167 19.361,-0.163 c 10.648,-0.089 45.97,-0.147 78.493,-0.129 l 59.133,0.033 1.894,3.711 c 1.321,2.589 2.457,4.217 3.758,5.385 l 1.863,1.675 10.995,-0.112 c 12.452,-0.127 11.526,0.112 13.945,-3.595 1.269,-1.945 2.717,-5.518 3.179,-7.845 0.174,-0.877 0.721,-1.462 2.168,-2.326 9.681,-5.77 10.569,-9.262 10.531,-41.424 -0.015,-12.461 -0.02,-23.362 -0.012,-24.225 0.016,-1.745 -1.32,-0.526 13.217,-12.048 13.935,-11.043 17.868,-17.645 17.839,-29.938 -0.058,-24.582 -25.903,-39.38 -48.712,-27.889 -2.08,1.048 -9.682,5.976 -10.945,7.094 -0.377,0.335 -0.759,0.534 -0.849,0.445 -0.204,-0.204 2.509,-10.1 8.878,-32.384 2.797,-9.785 11.396,-40.281 12.006,-42.578 C 324.261,51.562 318.661,30.09 304.261,16.659 295.675,8.652 285.794,4.224 273.242,2.758 270.139,2.396 256.516,2.208 256.201,2.523"
         stroke="none"
         fill="#7c1fff"
         fill-rule="evenodd"
         sodipodi:nodetypes="ccccccccscccccccccccccccccccccccccccscccccccc"
         style="fill:#4d4d4d" />
    </g>
  </g>
  <g
     inkscape:groupmode="layer"
     id="layer4"
     inkscape:label="Trophy"
     style="display:inline">
    <path
       id="path1"
       d="m 128.72807,54.079767 c 0.918,0.083 2.325,0.082 3.125,-0.002 0.8,-0.084 0.048,-0.152 -1.671,-0.15 -1.719,10e-4 -2.373,0.07 -1.454,0.152 m 117.958,0.002 c 1.12799,0.079 2.97399,0.079 4.10199,0 1.127,-0.079 0.20501,-0.144 -2.051,-0.144 -2.256,0 -3.179,0.065 -2.05099,0.144 m -88.314,24.972 c -0.143,0.143 -0.26,2.385 -0.26,4.981 v 4.72 l -12.793,-0.118 c -20.306,-0.188 -24.042,1.009 -27.789,8.907 l -1.02,2.148 v 13.477003 c 0,17.372 0.93,19.896 8.674,23.551 l 2.654,1.253 17.421,0.12 17.421,0.119 0.907,1.639 c 2.511,4.532 9.95,13.162 11.347,13.162 0.23,0 0.977,0.419 1.661,0.931 0.684,0.512 1.683,1.063 2.22,1.223 2.222,0.666 8.547,4.117 8.737,4.768 1.45,4.96 3.934,21.626 3.285,22.034 -3.24723,11.23614 -3.27135,11.25165 -14.28174,22.54259 -6.62359,1.15811 -9.29691,0.75416 -11.53037,5.73536 -1.52153,3.50345 0.499,34.09738 0.0578,37.85149 -0.44488,3.7857 -7.29791,2.72666 -9.50142,7.15014 -1.69031,3.39325 0.25153,7.01639 0.96677,10.73715 l 81.30192,0.30827 c 2.08591,-6.26303 1.35344,-9.19621 0.0135,-12.00939 -2.17153,-4.55908 -8.64176,-2.49705 -8.79102,-7.01592 -0.1357,-4.10837 2.05825,-32.56138 0.1496,-36.85607 -1.90864,-4.29469 -2.53512,-4.94426 -11.2196,-5.72527 -11.29549,-10.35518 -12.28185,-10.60933 -13.84537,-22.90829 -0.337,-3.539 1.37988,-14.73206 3.08188,-19.91406 1.167,-3.553 1.211,-3.591 6.771,-5.771 2.235,-0.876 4.502,-1.987 5.039,-2.469 0.537,-0.483 1.583,-1.294 2.324,-1.803 3.02999,-2.083 8.47299,-8.582 10.53499,-12.579 l 0.555,-1.074 h 16.659 c 20.87,0 22.887,-0.463 27.027,-6.201 2.879,-3.989 3.058,-5.055 3.05,-18.135 -0.01,-14.585003 -0.569,-16.922003 -5.052,-21.115003 -3.88399,-3.634 -3.428,-3.557 -21.602,-3.687 l -15.918,-0.114 v -4.448 c 0,-3.522 -0.127,-4.575 -0.613,-5.061 -0.642,-0.642 -77.00699,-0.989 -77.64199,-0.354 m -0.065,34.310003 v 12.109 h -13.608 -13.609 l -0.942,-1.096 c -1.23,-1.43 -1.499,-20.005 -0.315,-21.696 1.052,-1.502 1.856,-1.58 15.388,-1.502 l 13.086,0.076 v 12.109 m 105.40099,-11.939 c 2.561,0.594 2.581,0.679 2.594,11.425 0.019,14.013 1.52,12.819 -16.117,12.819 h -13.044 l -0.271,-11.928 c -0.149,-6.561 -0.167,-12.098 -0.039,-12.305 0.297,-0.48 24.812,-0.49 26.877,-0.011 m 25.188,239.37899 c 2.644,0.068 6.863,0.068 9.375,0 2.512,-0.068 0.349,-0.123 -4.808,-0.123 -5.156,0 -7.211,0.056 -4.567,0.123"
       stroke="none"
       fill="#f8c973"
       fill-rule="evenodd"
       sodipodi:nodetypes="csccccsccsccccscccccsscccccssccsssccccscccccssccccccccccccscccccssccssc"
       style="display:inline" />
  </g>
</svg>
