<svg xmlns="http://www.w3.org/2000/svg" width="338.871" height="310.772" xmlns:v="https://vecta.io/nano"><path d="M226.908.001c-7.859.382-15.73.186-23.594.284L94.074.429c-2.794.25-5.444 1.248-8.171 1.844-5.135 1.314-10.158 3.153-14.765 5.798-14.283 7.767-25.411 21.205-30.183 36.768-4.488 14.218-4.033 29.788.527 43.928l13.299 45.793c-10.736-2.278-22.333-.98-32.02 4.302-8.663 4.648-15.682 12.36-19.271 21.535C.181 168.568-.892 177.702.777 186.38c1.462 7.004 5.133 13.383 9.837 18.712 6.036 7.006 13.499 12.548 20.713 18.257l.709 48.043c.558 5.521 3.165 10.616 6.338 15.082 1.858 2.512 4.036 4.795 6.516 6.702 1.249 4.976 3.685 9.912 7.939 12.975 4.587 3.419 10.496 4.361 16.065 4.423 5.777.192 11.563.134 17.339.046 2.879-.247 5.087-2.371 6.851-4.475a42.92 42.92 0 0 0 4.684-5.998l141.193-.202c.523.097 1.304-.273 1.525.368 2.207 3.501 5.127 6.565 8.545 8.899 1.89 1.216 4.183 1.758 6.416 1.495 7.385-.139 14.787.06 22.155-.505 4.703-.639 9.173-3.33 11.606-7.458 1.902-2.767 3.381-5.815 4.464-8.991 4.55-2.929 8.499-7.013 10.554-12.081 2.88-6.762 3.109-14.234 3.387-21.469.342-11.751.148-23.508.185-35.262.123-.542-.268-1.327.231-1.691 7.831-6.368 16.278-12.225 22.553-20.249 3.868-4.949 6.593-10.823 7.582-17.044 1.301-7.526.812-15.385-1.528-22.662-2.777-8.547-8.343-16.141-15.642-21.381a45.14 45.14 0 0 0-29.975-8.416c-2.055.148-4.099.438-6.117.851l14.41-51.366c4.122-17.044 1.87-35.711-6.906-50.969-7.972-13.877-21.382-24.568-36.773-29.027-7.495-2.26-15.36-3.046-23.166-2.956l-5.561-.031z" fill="#673ab7"/><path d="M113.398 38.767c-7.815 45.587 16.892 57.35 46.235 79.343 1.45 4.96 3.934 21.626 3.285 22.034-3.247 11.236-3.271 11.252-14.282 22.543-6.624 1.158-9.297.754-11.53 5.735-1.522 3.503.499 34.097.058 37.851-.445 3.786-7.298 2.727-9.501 7.15-1.69 3.393.252 7.016.967 10.737l81.302.308c2.086-6.263 1.353-9.196.013-12.009-2.172-4.559-8.642-2.497-8.791-7.016-.136-4.108 2.058-32.561.15-36.856s-2.535-4.944-11.22-5.725c-11.295-10.355-12.282-10.609-13.845-22.908-.337-3.539 1.428-17.038 3.13-22.22 37.948-26.082 52.393-33.125 46.356-79.677" fill="#f8c973" fill-rule="evenodd"/></svg>