<?xml version="1.0" encoding="UTF-8" standalone="no"?>
<svg
   id="svg"
   version="1.1"
   width="400"
   height="83.09178743961353"
   viewBox="0, 0, 400,83.09178743961353"
   sodipodi:docname="login_yahoo_dark.svg"
   inkscape:version="1.1.2 (0a00cf5339, 2022-02-04)"
   xmlns:inkscape="http://www.inkscape.org/namespaces/inkscape"
   xmlns:sodipodi="http://sodipodi.sourceforge.net/DTD/sodipodi-0.dtd"
   xmlns="http://www.w3.org/2000/svg"
   xmlns:svg="http://www.w3.org/2000/svg">
  <defs
     id="defs8" />
  <sodipodi:namedview
     id="namedview6"
     pagecolor="#ffffff"
     bordercolor="#666666"
     borderopacity="1.0"
     inkscape:pageshadow="2"
     inkscape:pageopacity="0.0"
     inkscape:pagecheckerboard="0"
     showgrid="false"
     inkscape:zoom="3.345"
     inkscape:cx="200"
     inkscape:cy="41.405082"
     inkscape:window-width="3366"
     inkscape:window-height="1376"
     inkscape:window-x="0"
     inkscape:window-y="0"
     inkscape:window-maximized="1"
     inkscape:current-layer="layer1" />
  <g
     id="svgg">
    <path
       id="path0"
       d="M68.608 19.523 C 68.303 19.700,67.500 21.301,67.500 21.732 C 67.500 21.855,67.353 22.142,67.172 22.371 C 66.992 22.600,66.765 23.146,66.667 23.583 C 66.569 24.021,66.341 24.566,66.161 24.795 C 65.981 25.024,65.833 25.322,65.833 25.457 C 65.833 25.592,65.615 26.163,65.348 26.726 C 65.081 27.289,64.782 28.050,64.683 28.417 C 64.584 28.783,64.353 29.308,64.169 29.583 C 63.986 29.858,63.835 30.203,63.834 30.350 C 63.834 30.497,63.650 30.962,63.426 31.383 C 63.202 31.805,62.926 32.472,62.812 32.866 C 62.699 33.261,62.478 33.772,62.320 34.002 C 62.163 34.232,61.945 34.757,61.835 35.168 C 61.726 35.580,61.502 36.142,61.338 36.417 C 61.174 36.692,60.945 37.217,60.829 37.583 C 60.713 37.950,60.477 38.512,60.306 38.833 C 60.134 39.154,59.913 39.717,59.815 40.083 C 59.716 40.450,59.536 40.862,59.414 41.000 C 58.235 42.331,58.805 42.500,64.488 42.500 L 69.331 42.500 69.823 41.821 C 70.093 41.448,70.442 40.759,70.597 40.291 C 70.753 39.823,71.012 39.210,71.174 38.928 C 71.335 38.647,71.522 38.154,71.588 37.833 C 71.654 37.512,71.838 37.063,71.997 36.833 C 72.156 36.604,72.421 36.005,72.586 35.502 C 72.751 34.999,73.024 34.361,73.193 34.085 C 73.361 33.809,73.499 33.471,73.500 33.333 C 73.501 33.196,73.726 32.633,74.000 32.083 C 74.274 31.533,74.499 30.945,74.499 30.776 C 74.500 30.607,74.643 30.268,74.817 30.022 C 74.992 29.777,75.266 29.166,75.426 28.663 C 75.586 28.161,75.811 27.637,75.926 27.500 C 76.041 27.363,76.221 26.928,76.326 26.535 C 76.431 26.142,76.700 25.474,76.925 25.052 C 77.150 24.629,77.333 24.180,77.333 24.054 C 77.333 23.927,77.549 23.395,77.813 22.870 C 78.076 22.346,78.343 21.679,78.406 21.389 C 78.469 21.098,78.666 20.693,78.844 20.488 C 79.253 20.016,79.253 19.725,78.844 19.506 C 78.397 19.266,69.022 19.282,68.608 19.523 M29.887 30.783 C 29.196 30.917,29.121 31.231,29.578 32.090 C 29.810 32.526,30.000 32.977,30.000 33.091 C 30.000 33.206,30.225 33.727,30.500 34.250 C 30.775 34.773,31.000 35.324,31.001 35.475 C 31.001 35.626,31.186 36.050,31.412 36.417 C 31.638 36.783,31.826 37.196,31.829 37.333 C 31.832 37.471,32.059 38.033,32.333 38.583 C 32.608 39.133,32.834 39.696,32.836 39.833 C 32.837 39.971,33.061 40.458,33.333 40.917 C 33.605 41.375,33.829 41.862,33.831 42.000 C 33.833 42.137,34.059 42.700,34.333 43.250 C 34.608 43.800,34.833 44.362,34.833 44.500 C 34.834 44.637,34.973 44.977,35.142 45.254 C 35.311 45.531,35.546 46.056,35.664 46.421 C 35.782 46.785,36.056 47.390,36.272 47.765 C 36.489 48.139,36.667 48.560,36.667 48.700 C 36.667 48.839,36.892 49.375,37.167 49.890 C 37.442 50.405,37.668 50.960,37.670 51.122 C 37.671 51.284,37.895 51.792,38.167 52.250 C 38.439 52.708,38.662 53.190,38.664 53.320 C 38.665 53.450,38.901 54.039,39.188 54.628 C 39.832 55.949,39.803 57.173,39.101 58.372 C 38.862 58.779,38.667 59.208,38.667 59.324 C 38.667 59.440,38.471 59.921,38.232 60.392 C 37.993 60.864,37.690 61.606,37.559 62.042 C 37.428 62.477,37.258 62.833,37.182 62.833 C 37.106 62.833,36.918 63.281,36.765 63.828 C 36.611 64.375,36.414 64.867,36.326 64.921 C 35.452 65.461,36.791 65.667,41.191 65.667 L 45.366 65.667 45.813 65.189 C 46.058 64.926,46.356 64.330,46.476 63.865 C 46.595 63.400,46.794 62.935,46.919 62.832 C 47.043 62.728,47.196 62.405,47.259 62.113 C 47.321 61.822,47.520 61.283,47.701 60.917 C 47.881 60.550,48.162 59.875,48.325 59.417 C 48.488 58.958,48.781 58.284,48.977 57.919 C 49.173 57.554,49.333 57.141,49.333 57.001 C 49.333 56.862,49.511 56.410,49.727 55.999 C 49.944 55.587,50.218 54.950,50.337 54.584 C 50.456 54.218,50.728 53.588,50.943 53.184 C 51.158 52.781,51.334 52.330,51.334 52.184 C 51.335 52.037,51.486 51.692,51.669 51.417 C 51.853 51.142,52.083 50.617,52.181 50.250 C 52.279 49.883,52.579 49.140,52.846 48.598 C 53.114 48.057,53.333 47.486,53.333 47.329 C 53.333 47.173,53.479 46.860,53.657 46.633 C 53.836 46.406,54.073 45.852,54.184 45.402 C 54.295 44.952,54.524 44.404,54.693 44.186 C 54.862 43.967,55.000 43.679,55.000 43.545 C 55.000 43.411,55.252 42.765,55.560 42.109 C 55.868 41.453,56.174 40.692,56.240 40.417 C 56.305 40.142,56.459 39.804,56.581 39.667 C 56.703 39.529,56.891 39.079,57.000 38.667 C 57.108 38.254,57.331 37.692,57.495 37.417 C 57.659 37.142,57.889 36.617,58.006 36.251 C 58.123 35.885,58.395 35.255,58.610 34.851 C 58.824 34.447,59.002 33.997,59.005 33.850 C 59.008 33.703,59.233 33.135,59.505 32.588 C 60.470 30.647,60.436 30.632,55.125 30.698 C 50.403 30.756,50.459 30.743,50.153 31.894 C 50.052 32.273,49.826 32.817,49.651 33.103 C 49.476 33.389,49.333 33.771,49.333 33.953 C 49.333 34.135,49.148 34.632,48.921 35.059 C 48.695 35.485,48.390 36.245,48.244 36.747 C 48.098 37.249,47.909 37.703,47.825 37.755 C 47.740 37.808,47.549 38.278,47.400 38.800 C 47.251 39.323,46.996 39.975,46.833 40.250 C 46.669 40.525,46.481 41.012,46.413 41.333 C 46.345 41.654,46.075 42.321,45.812 42.815 C 45.549 43.309,45.333 43.839,45.333 43.992 C 45.333 45.309,43.919 44.110,43.580 42.505 C 43.512 42.186,43.242 41.502,42.979 40.984 C 42.715 40.466,42.500 39.901,42.499 39.729 C 42.499 39.557,42.350 39.173,42.168 38.875 C 41.987 38.577,41.751 37.977,41.646 37.542 C 41.540 37.106,41.360 36.637,41.246 36.500 C 41.132 36.362,40.868 35.725,40.659 35.083 C 40.450 34.442,40.183 33.803,40.066 33.664 C 39.948 33.525,39.771 33.047,39.671 32.601 C 39.242 30.687,39.167 30.661,34.217 30.689 C 32.035 30.702,30.087 30.744,29.887 30.783 M134.007 32.474 C 132.613 33.801,133.492 35.667,135.511 35.667 C 137.010 35.667,137.810 34.228,137.134 32.745 C 136.633 31.645,135.025 31.506,134.007 32.474 M178.376 32.005 C 178.170 32.088,177.839 32.490,177.640 32.899 C 176.635 34.966,179.281 36.801,180.782 35.078 C 182.306 33.327,180.578 31.120,178.376 32.005 M227.480 32.147 C 226.608 32.832,226.520 34.370,227.297 35.329 C 228.199 36.444,230.667 35.366,230.667 33.858 C 230.667 32.289,228.665 31.214,227.480 32.147 M246.667 32.093 C 246.029 32.248,245.636 32.458,245.376 32.783 L 245.002 33.250 245.001 42.521 L 245.000 51.793 245.496 51.998 C 246.130 52.261,248.355 52.161,248.727 51.853 C 248.968 51.652,249.000 51.070,249.000 46.833 C 249.000 40.722,248.986 40.767,250.986 40.559 C 252.220 40.432,253.145 40.713,253.667 41.374 L 254.083 41.903 254.140 46.909 C 254.206 52.656,254.020 52.161,256.105 52.164 C 258.195 52.168,258.037 52.686,257.972 46.035 L 257.917 40.388 257.458 39.727 C 257.206 39.363,257.000 38.994,257.000 38.908 C 257.000 38.729,256.129 38.004,255.500 37.659 C 254.515 37.119,250.881 37.470,250.251 38.166 C 250.084 38.350,249.825 38.500,249.674 38.500 C 249.067 38.500,249.000 38.173,249.000 35.208 L 249.000 32.316 248.422 32.075 C 247.764 31.800,247.877 31.799,246.667 32.093 M298.201 32.157 C 296.554 32.628,296.678 31.797,296.672 42.425 C 296.666 53.184,296.464 52.167,298.605 52.167 C 300.830 52.167,300.667 52.608,300.667 46.594 L 300.667 41.545 301.092 41.121 C 301.589 40.623,302.736 40.409,303.987 40.581 C 305.548 40.796,305.665 41.250,305.666 47.116 C 305.667 51.610,305.670 51.650,306.037 51.907 C 306.467 52.208,308.546 52.268,309.253 51.999 L 309.694 51.831 309.626 46.374 C 309.543 39.638,309.319 38.775,307.397 37.782 C 306.063 37.094,302.934 37.358,301.753 38.259 C 300.763 39.014,300.716 38.896,300.639 35.447 C 300.550 31.508,300.536 31.489,298.201 32.157 M123.115 32.950 C 121.754 33.303,120.397 34.365,119.537 35.750 C 118.687 37.120,118.599 39.800,119.368 40.888 C 119.616 41.238,119.860 41.654,119.910 41.812 C 120.041 42.226,121.494 43.287,122.335 43.584 C 122.731 43.724,123.156 43.922,123.280 44.025 C 123.404 44.127,123.907 44.305,124.399 44.419 C 125.694 44.720,126.965 45.599,127.191 46.349 C 127.732 48.153,124.546 49.759,122.203 48.863 C 119.159 47.698,118.833 47.785,118.833 49.759 C 118.833 51.729,119.163 51.943,122.811 52.337 C 124.077 52.474,124.857 52.474,125.728 52.339 C 126.382 52.238,127.151 52.119,127.437 52.074 C 127.723 52.029,128.128 51.845,128.337 51.663 C 128.547 51.482,128.803 51.333,128.907 51.333 C 129.185 51.333,130.445 49.980,130.577 49.542 C 130.639 49.335,130.753 49.167,130.832 49.167 C 131.126 49.167,131.391 47.866,131.392 46.417 C 131.394 44.009,129.848 41.880,127.750 41.402 C 127.475 41.340,127.138 41.192,127.000 41.075 C 126.862 40.958,126.274 40.739,125.692 40.589 C 120.839 39.337,122.607 35.368,127.555 36.406 C 128.304 36.563,129.217 36.667,129.583 36.638 L 130.250 36.583 130.299 35.351 C 130.358 33.886,129.987 33.329,128.743 33.016 C 128.046 32.840,123.734 32.790,123.115 32.950 M265.944 33.111 C 265.762 33.294,265.819 34.305,266.019 34.428 C 266.121 34.491,266.386 34.927,266.609 35.396 C 266.832 35.866,267.309 36.775,267.668 37.417 C 268.358 38.647,268.802 39.485,269.346 40.583 C 269.527 40.950,269.748 41.362,269.836 41.500 C 269.925 41.637,270.194 42.125,270.434 42.583 C 270.675 43.042,270.994 43.556,271.144 43.725 C 271.376 43.988,271.425 44.608,271.470 47.889 C 271.503 50.263,271.591 51.825,271.699 51.955 C 271.912 52.212,274.760 52.250,275.406 52.004 L 275.833 51.842 275.833 48.396 C 275.833 44.673,276.002 43.761,276.952 42.352 C 277.162 42.041,277.333 41.698,277.333 41.590 C 277.333 41.481,277.556 41.098,277.829 40.738 C 278.101 40.378,278.326 39.962,278.329 39.814 C 278.331 39.666,278.473 39.366,278.644 39.147 C 278.815 38.929,279.109 38.450,279.297 38.083 C 280.383 35.970,280.612 35.544,280.867 35.167 C 281.363 34.432,281.520 33.356,281.161 33.163 C 279.911 32.495,277.497 33.207,277.254 34.317 C 277.196 34.579,276.966 35.041,276.741 35.345 C 276.517 35.649,276.333 36.023,276.333 36.177 C 276.333 36.330,276.182 36.648,275.996 36.883 C 275.811 37.119,275.550 37.621,275.417 38.000 C 275.283 38.379,275.022 38.902,274.837 39.162 C 274.652 39.422,274.500 39.700,274.500 39.780 C 274.500 39.860,274.379 40.098,274.232 40.309 L 273.964 40.692 273.402 39.857 C 273.093 39.398,272.710 38.699,272.552 38.303 C 272.394 37.907,272.093 37.329,271.883 37.018 C 271.672 36.708,271.500 36.344,271.500 36.211 C 271.500 36.077,271.359 35.769,271.186 35.526 C 271.013 35.282,270.747 34.783,270.594 34.417 C 270.098 33.226,269.666 33.013,267.736 33.006 C 266.812 33.003,266.006 33.050,265.944 33.111 M236.750 34.749 C 236.658 34.779,236.382 34.848,236.137 34.902 C 235.472 35.048,235.212 35.399,235.085 36.321 C 234.955 37.264,234.823 37.413,233.981 37.565 C 233.010 37.740,232.766 38.140,232.938 39.275 L 233.083 40.229 233.880 40.432 C 235.228 40.775,235.167 40.558,235.167 44.970 C 235.167 51.592,235.927 52.589,240.733 52.266 C 242.505 52.147,242.667 52.041,242.667 50.990 C 242.667 49.574,242.487 49.333,241.432 49.333 C 239.227 49.333,239.000 48.861,239.000 44.273 L 239.000 40.866 239.525 40.683 C 239.814 40.582,240.511 40.500,241.075 40.500 C 242.370 40.500,242.500 40.363,242.500 39.000 C 242.500 37.618,242.380 37.500,240.978 37.500 C 239.198 37.500,239.000 37.370,239.000 36.197 C 239.000 34.859,238.119 34.292,236.750 34.749 M285.644 37.426 C 282.948 37.706,282.497 38.011,282.503 39.550 C 282.507 40.807,282.737 40.895,285.171 40.576 C 288.376 40.154,289.833 40.709,289.833 42.350 C 289.833 43.184,289.668 43.271,287.689 43.484 C 286.739 43.586,285.726 43.777,285.439 43.908 C 285.152 44.038,284.603 44.236,284.219 44.346 C 281.212 45.210,280.465 49.450,282.966 51.454 C 284.313 52.534,288.088 52.684,289.010 51.694 C 289.459 51.212,290.153 51.237,290.642 51.753 C 291.086 52.220,293.227 52.373,293.633 51.967 C 294.124 51.476,293.827 40.000,293.324 40.000 C 293.242 40.000,293.042 39.743,292.879 39.428 C 292.608 38.904,291.928 38.330,290.969 37.817 C 290.237 37.425,287.547 37.227,285.644 37.426 M143.917 37.493 C 140.109 38.124,138.337 42.734,140.931 45.256 C 141.718 46.020,141.686 46.265,140.643 47.464 C 140.033 48.166,139.965 49.711,140.500 50.710 C 140.948 51.547,140.927 51.675,140.251 52.215 C 138.940 53.261,138.715 55.078,139.746 56.284 C 141.281 58.077,147.789 58.862,149.707 57.487 C 149.958 57.306,150.381 57.115,150.647 57.062 C 152.298 56.732,153.628 53.716,152.985 51.758 C 152.271 49.582,151.573 49.254,147.143 49.014 C 145.106 48.904,144.423 48.807,144.023 48.570 C 142.783 47.838,143.272 47.323,145.366 47.156 C 149.760 46.807,152.273 44.552,151.649 41.518 C 151.532 40.953,152.021 40.167,152.488 40.167 C 152.760 40.167,153.167 39.235,153.167 38.612 C 153.167 37.661,152.930 37.583,150.015 37.583 C 148.586 37.583,146.817 37.531,146.083 37.468 C 145.350 37.406,144.375 37.417,143.917 37.493 M161.667 37.593 C 161.014 37.733,160.477 37.955,160.317 38.151 C 159.782 38.802,158.931 38.776,158.530 38.097 C 158.124 37.409,156.663 37.235,155.658 37.754 L 155.167 38.009 155.167 44.893 L 155.167 51.777 155.565 51.990 C 156.088 52.270,158.510 52.171,158.891 51.855 C 159.136 51.652,159.168 51.068,159.179 46.688 C 159.194 40.408,159.236 40.319,162.067 40.557 C 164.139 40.731,164.316 41.276,164.326 47.524 C 164.334 52.648,164.127 52.167,166.327 52.167 C 168.348 52.167,168.200 52.658,168.137 46.135 L 168.083 40.583 167.529 39.632 C 166.298 37.515,164.666 36.948,161.667 37.593 M190.708 37.571 C 190.096 37.692,189.507 37.925,189.283 38.136 C 188.615 38.763,187.907 38.792,187.603 38.205 C 187.205 37.435,185.469 37.185,184.577 37.769 L 184.167 38.038 184.167 44.908 L 184.167 51.777 184.565 51.990 C 185.088 52.270,187.510 52.171,187.891 51.855 C 188.136 51.651,188.167 51.077,188.167 46.688 C 188.168 40.787,188.172 40.773,189.738 40.578 C 191.224 40.392,192.065 40.590,192.657 41.265 L 193.167 41.845 193.167 46.833 C 193.167 52.657,192.970 52.167,195.302 52.167 C 197.352 52.167,197.200 52.664,197.137 46.135 L 197.083 40.583 196.529 39.632 C 195.306 37.530,193.737 36.974,190.708 37.571 M318.000 37.415 C 317.862 37.450,317.404 37.524,316.981 37.580 C 315.451 37.780,313.770 39.177,312.694 41.142 L 312.087 42.250 312.085 44.833 C 312.083 47.205,312.113 47.464,312.449 48.000 C 312.650 48.321,312.957 48.883,313.131 49.250 C 313.465 49.952,314.529 50.981,315.608 51.646 C 317.036 52.526,321.589 52.559,322.576 51.696 C 322.763 51.532,323.199 51.215,323.545 50.991 C 325.904 49.460,327.008 45.486,325.975 42.241 C 325.520 40.814,324.283 38.945,323.661 38.748 C 323.480 38.691,323.124 38.469,322.870 38.255 C 322.167 37.663,319.095 37.133,318.000 37.415 M333.750 37.435 C 332.084 37.674,331.717 37.844,330.238 39.064 C 328.740 40.299,327.463 43.752,327.826 45.583 C 328.099 46.961,328.692 48.899,328.893 49.071 C 329.008 49.170,329.274 49.512,329.485 49.833 C 329.695 50.154,330.127 50.604,330.445 50.833 C 330.763 51.063,331.234 51.418,331.493 51.624 C 331.944 51.983,333.943 52.415,335.000 52.382 C 336.147 52.346,338.057 52.001,338.304 51.785 C 338.458 51.650,338.814 51.424,339.095 51.281 C 339.715 50.968,340.964 49.710,341.109 49.252 C 341.167 49.070,341.388 48.658,341.601 48.336 C 342.131 47.533,342.376 45.338,342.153 43.375 C 342.035 42.331,341.878 41.750,341.601 41.331 C 341.388 41.009,341.166 40.597,341.106 40.414 C 340.484 38.507,336.766 37.001,333.750 37.435 M134.005 37.686 C 133.778 37.776,133.536 37.940,133.466 38.050 C 133.188 38.486,133.311 51.621,133.595 51.905 C 133.925 52.234,136.815 52.285,137.133 51.967 C 137.510 51.590,137.410 38.121,137.029 37.776 C 136.681 37.461,134.714 37.402,134.005 37.686 M177.870 37.759 L 177.500 38.019 177.500 44.920 C 177.500 52.963,177.291 52.238,179.577 52.141 C 181.676 52.053,181.500 52.717,181.500 44.894 L 181.500 38.162 180.958 37.832 C 180.269 37.411,178.429 37.368,177.870 37.759 M205.779 37.769 C 205.445 37.950,205.339 38.106,205.416 38.304 C 205.475 38.458,205.601 38.996,205.695 39.500 C 205.789 40.004,206.083 41.089,206.349 41.910 C 206.616 42.731,206.835 43.594,206.837 43.827 C 206.839 44.059,206.985 44.568,207.162 44.957 C 207.338 45.346,207.568 46.134,207.673 46.707 C 207.777 47.281,208.000 48.087,208.167 48.500 C 208.334 48.913,208.585 49.804,208.725 50.481 C 208.864 51.158,209.062 51.795,209.164 51.898 C 209.451 52.185,212.227 52.250,212.438 51.974 C 212.787 51.516,213.340 49.919,213.603 48.605 C 213.752 47.860,213.983 47.037,214.116 46.778 C 214.248 46.518,214.429 45.843,214.518 45.278 C 214.719 43.995,214.817 43.667,214.999 43.667 C 215.312 43.667,216.494 46.662,216.498 47.463 C 216.499 47.672,216.679 48.272,216.898 48.797 C 217.117 49.321,217.348 50.138,217.412 50.612 C 217.594 51.970,217.734 52.074,219.466 52.141 C 221.017 52.201,221.500 51.978,221.500 51.204 C 221.500 51.082,221.642 50.667,221.815 50.283 C 221.988 49.898,222.185 49.175,222.252 48.675 C 222.319 48.175,222.504 47.462,222.664 47.091 C 222.823 46.719,223.081 45.783,223.238 45.011 C 223.394 44.239,223.634 43.391,223.771 43.127 C 223.907 42.862,224.125 42.042,224.255 41.304 C 224.385 40.565,224.561 39.876,224.646 39.772 C 225.641 38.557,225.108 37.493,223.516 37.517 C 221.544 37.546,221.483 37.596,221.157 39.417 C 221.042 40.058,220.851 40.815,220.733 41.099 C 220.614 41.382,220.398 42.357,220.252 43.264 C 219.948 45.151,219.918 45.204,219.246 45.027 C 218.809 44.911,218.734 44.797,218.612 44.073 C 218.537 43.620,218.256 42.537,217.988 41.667 C 217.720 40.796,217.420 39.647,217.320 39.114 C 216.915 36.953,213.762 36.746,213.417 38.857 C 213.351 39.257,213.161 39.921,212.994 40.333 C 212.827 40.746,212.605 41.607,212.500 42.247 C 212.396 42.887,212.250 43.487,212.177 43.580 C 212.103 43.674,211.949 44.050,211.833 44.417 C 211.717 44.783,211.511 45.303,211.375 45.571 L 211.128 46.059 210.924 45.571 C 210.812 45.303,210.670 44.650,210.608 44.120 C 210.546 43.590,210.351 42.727,210.175 42.203 C 209.998 41.679,209.766 40.650,209.659 39.917 C 209.430 38.339,209.314 38.085,208.670 37.752 C 208.041 37.427,206.392 37.436,205.779 37.769 M227.109 37.805 C 226.649 38.314,226.693 51.746,227.156 51.994 C 227.564 52.213,229.673 52.219,230.239 52.004 L 230.667 51.842 230.667 44.912 L 230.667 37.983 230.089 37.741 C 229.230 37.383,227.457 37.421,227.109 37.805 M146.793 40.245 C 148.444 41.013,148.502 43.873,146.876 44.324 C 143.651 45.220,141.736 42.051,144.458 40.324 C 145.396 39.729,145.667 39.720,146.793 40.245 M320.612 40.681 C 323.791 42.219,322.714 49.336,319.303 49.332 C 316.613 49.330,315.609 47.581,316.000 43.580 C 316.260 40.931,318.378 39.599,320.612 40.681 M336.191 40.527 C 338.863 41.327,339.072 48.409,336.447 49.192 C 333.685 50.016,331.777 48.229,331.775 44.817 C 331.773 41.513,333.590 39.748,336.191 40.527 M60.167 44.862 C 59.938 44.969,59.487 45.172,59.167 45.314 C 58.446 45.633,57.157 46.598,56.924 46.995 C 56.828 47.157,56.611 47.485,56.442 47.724 C 56.139 48.151,55.968 48.680,55.654 50.161 C 55.447 51.139,55.995 53.380,56.594 54.009 C 56.817 54.243,57.000 54.512,57.000 54.606 C 57.000 55.205,60.153 56.694,61.421 56.694 C 63.421 56.694,65.980 55.133,66.785 53.422 C 66.916 53.144,67.145 52.692,67.294 52.417 C 67.722 51.628,67.678 49.156,67.226 48.544 C 67.036 48.287,66.822 47.894,66.751 47.670 C 66.173 45.848,61.934 44.040,60.167 44.862 M289.774 46.281 C 290.058 46.961,289.968 48.440,289.615 48.874 C 289.303 49.260,287.494 49.690,286.911 49.518 C 284.572 48.829,284.697 46.642,287.096 46.256 C 287.470 46.196,288.070 46.042,288.430 45.914 C 289.383 45.574,289.491 45.604,289.774 46.281 M148.497 52.459 C 150.556 53.493,149.040 55.242,145.917 55.435 C 143.098 55.609,141.741 54.153,143.144 52.458 C 143.500 52.028,147.640 52.028,148.497 52.459 "
       stroke="none"
       fill="#ffffff"
       fill-rule="evenodd" />
  </g>
  <g
     inkscape:groupmode="layer"
     id="layer1"
     inkscape:label="Logo">
    <path
       id="path1"
       d="m 4.5,0.14408221 c 0,0.149 -0.206,0.26 -0.542,0.292 -0.451,0.044 -0.55,0.129 -0.594,0.511 C 3.322,1.3110822 3.225,1.4050822 2.893,1.4050822 c -0.546,0 -1.393,0.847 -1.393,1.393 0,0.332 -0.094,0.429 -0.458,0.471 -0.382,0.044 -0.467,0.143 -0.511,0.594 -0.032,0.336 -0.143,0.542 -0.292,0.542 -0.207,0 -0.239,4.947 -0.239,36.9999998 0,32.053 0.032,37 0.239,37 0.149,0 0.26,0.206 0.292,0.542 0.044,0.451 0.129,0.55 0.511,0.594 0.38,0.044 0.458,0.134 0.458,0.527 0,0.566 0.818,1.337 1.418,1.337 0.305,0 0.405,0.103 0.446,0.458 0.044,0.382 0.143,0.467 0.594,0.511 0.336,0.032 0.542,0.143 0.542,0.292 0,0.208 25.665,0.239 195.5,0.239 169.835,0 195.5,-0.031 195.5,-0.239 0,-0.149 0.206,-0.26 0.542,-0.292 0.451,-0.044 0.55,-0.129 0.594,-0.511 0.043,-0.37 0.137,-0.458 0.491,-0.458 0.594,0 1.373,-0.768 1.373,-1.353 0,-0.376 0.082,-0.468 0.458,-0.511 0.382,-0.044 0.467,-0.143 0.511,-0.594 0.032,-0.336 0.143,-0.542 0.292,-0.542 0.207,0 0.239,-4.947 0.239,-37 0,-32.0529998 -0.032,-36.9999998 -0.239,-36.9999998 -0.149,0 -0.26,-0.206 -0.292,-0.542 -0.044,-0.451 -0.129,-0.55 -0.511,-0.594 -0.355,-0.041 -0.458,-0.141 -0.458,-0.446 0,-0.6 -0.771,-1.418 -1.337,-1.418 -0.393,0 -0.483,-0.078 -0.527,-0.45799999 -0.044,-0.382 -0.143,-0.467 -0.594,-0.511 -0.336,-0.032 -0.542,-0.143 -0.542,-0.292 0,-0.208 -25.665,-0.239 -195.5,-0.239 -169.835,0 -195.5,0.031 -195.5,0.239 M 78.844,19.411082 c 0.409,0.219 0.409,0.51 0,0.982 -0.178,0.205 -0.375,0.61 -0.438,0.901 -0.063,0.29 -0.33,0.957 -0.593,1.481 -0.264,0.525 -0.48,1.057 -0.48,1.184 0,0.126 -0.183,0.575 -0.408,0.998 -0.225,0.422 -0.494,1.09 -0.599,1.483 -0.105,0.393 -0.285,0.828 -0.4,0.965 -0.115,0.137 -0.34,0.661 -0.5,1.163 -0.16,0.503 -0.434,1.114 -0.609,1.359 -0.174,0.246 -0.317,0.585 -0.318,0.754 0,0.169 -0.225,0.757 -0.499,1.307 -0.274,0.55 -0.499,1.113 -0.5,1.25 -0.001,0.138 -0.139,0.476 -0.307,0.752 -0.169,0.276 -0.442,0.914 -0.607,1.417 -0.165,0.503 -0.43,1.102 -0.589,1.331 -0.159,0.23 -0.343,0.679 -0.409,1 -0.066,0.321 -0.253,0.814 -0.414,1.095 -0.162,0.282 -0.421,0.895 -0.577,1.363 -0.155,0.468 -0.504,1.157 -0.774,1.53 l -0.492,0.679 h -4.843 c -5.683,0 -6.253,-0.169 -5.074,-1.5 0.122,-0.138 0.302,-0.55 0.401,-0.917 0.098,-0.366 0.319,-0.929 0.491,-1.25 0.171,-0.321 0.407,-0.883 0.523,-1.25 0.116,-0.366 0.345,-0.891 0.509,-1.166 0.164,-0.275 0.388,-0.837 0.497,-1.249 0.11,-0.411 0.328,-0.936 0.485,-1.166 0.158,-0.23 0.379,-0.741 0.492,-1.136 0.114,-0.394 0.39,-1.061 0.614,-1.483 0.224,-0.421 0.408,-0.886 0.408,-1.033 10e-4,-0.147 0.152,-0.492 0.335,-0.767 0.184,-0.275 0.415,-0.8 0.514,-1.166 0.099,-0.367 0.398,-1.128 0.665,-1.691 0.267,-0.563 0.485,-1.134 0.485,-1.269 0,-0.135 0.148,-0.433 0.328,-0.662 0.18,-0.229 0.408,-0.774 0.506,-1.212 0.098,-0.437 0.325,-0.983 0.505,-1.212 0.181,-0.229 0.328,-0.516 0.328,-0.639 0,-0.431 0.803,-2.032 1.108,-2.209 0.414,-0.241 9.789,-0.257 10.236,-0.017 m -40.174,11.412 c 0.578,0.299 0.758,0.602 1.001,1.683 0.1,0.446 0.277,0.924 0.395,1.063 0.117,0.139 0.384,0.778 0.593,1.419 0.209,0.642 0.473,1.279 0.587,1.417 0.114,0.137 0.294,0.606 0.4,1.042 0.105,0.435 0.341,1.035 0.522,1.333 0.182,0.298 0.331,0.682 0.331,0.854 10e-4,0.172 0.216,0.737 0.48,1.255 0.263,0.518 0.533,1.202 0.601,1.521 0.339,1.605 1.753,2.804 1.753,1.487 0,-0.153 0.216,-0.683 0.479,-1.177 0.263,-0.494 0.533,-1.161 0.601,-1.482 0.068,-0.321 0.256,-0.808 0.42,-1.083 0.163,-0.275 0.418,-0.927 0.567,-1.45 0.149,-0.522 0.34,-0.992 0.425,-1.045 0.084,-0.052 0.273,-0.506 0.419,-1.008 0.146,-0.502 0.451,-1.262 0.677,-1.688 0.227,-0.427 0.412,-0.924 0.412,-1.106 0,-0.182 0.143,-0.564 0.318,-0.85 0.175,-0.286 0.401,-0.83 0.502,-1.209 0.306,-1.151 0.25,-1.138 4.972,-1.196 5.311,-0.066 5.345,-0.051 4.38,1.89 -0.272,0.547 -0.497,1.115 -0.5,1.262 -0.003,0.147 -0.181,0.597 -0.395,1.001 -0.215,0.404 -0.487,1.034 -0.604,1.4 -0.117,0.366 -0.347,0.891 -0.511,1.166 -0.164,0.275 -0.387,0.837 -0.495,1.25 -0.109,0.412 -0.297,0.862 -0.419,1 -0.122,0.137 -0.276,0.475 -0.341,0.75 -0.066,0.275 -0.372,1.036 -0.68,1.692 -0.308,0.656 -0.56,1.302 -0.56,1.436 0,0.134 -0.138,0.422 -0.307,0.641 -0.169,0.218 -0.398,0.766 -0.509,1.216 -0.111,0.45 -0.348,1.004 -0.527,1.231 -0.178,0.227 -0.324,0.54 -0.324,0.696 0,0.157 -0.219,0.728 -0.487,1.269 -0.267,0.542 -0.567,1.285 -0.665,1.652 -0.098,0.367 -0.328,0.892 -0.512,1.167 -0.183,0.275 -0.334,0.62 -0.335,0.767 0,0.146 -0.176,0.597 -0.391,1 -0.215,0.404 -0.487,1.034 -0.606,1.4 -0.119,0.366 -0.393,1.003 -0.61,1.415 -0.216,0.411 -0.394,0.863 -0.394,1.002 0,0.14 -0.16,0.553 -0.356,0.918 -0.196,0.365 -0.489,1.039 -0.652,1.498 -0.163,0.458 -0.444,1.133 -0.624,1.5 -0.181,0.366 -0.38,0.905 -0.442,1.196 -0.063,0.292 -0.216,0.615 -0.34,0.719 -0.125,0.103 -0.324,0.568 -0.443,1.033 -0.12,0.465 -0.418,1.061 -0.663,1.324 l -0.447,0.478 h -4.175 c -4.4,0 -5.739,-0.206 -4.865,-0.746 0.088,-0.054 0.285,-0.546 0.439,-1.093 0.153,-0.547 0.341,-0.995 0.417,-0.995 0.076,0 0.246,-0.356 0.377,-0.791 0.131,-0.436 0.434,-1.178 0.673,-1.65 0.239,-0.471 0.435,-0.952 0.435,-1.068 0,-0.116 0.195,-0.545 0.434,-0.952 0.702,-1.199 0.731,-2.423 0.087,-3.744 -0.287,-0.589 -0.523,-1.178 -0.524,-1.308 -0.002,-0.13 -0.225,-0.612 -0.497,-1.07 -0.272,-0.458 -0.496,-0.966 -0.497,-1.128 -0.002,-0.162 -0.228,-0.717 -0.503,-1.232 -0.275,-0.515 -0.5,-1.051 -0.5,-1.19 0,-0.14 -0.178,-0.561 -0.395,-0.935 -0.216,-0.375 -0.49,-0.98 -0.608,-1.344 -0.118,-0.365 -0.353,-0.89 -0.522,-1.167 -0.169,-0.277 -0.308,-0.617 -0.309,-0.754 0,-0.138 -0.225,-0.7 -0.5,-1.25 -0.274,-0.55 -0.5,-1.113 -0.502,-1.25 -0.002,-0.138 -0.226,-0.625 -0.498,-1.083 -0.272,-0.459 -0.496,-0.946 -0.497,-1.084 -0.002,-0.137 -0.228,-0.7 -0.503,-1.25 -0.274,-0.55 -0.501,-1.112 -0.504,-1.25 -0.003,-0.137 -0.191,-0.55 -0.417,-0.916 -0.226,-0.367 -0.411,-0.791 -0.411,-0.942 -0.001,-0.151 -0.226,-0.702 -0.501,-1.225 -0.275,-0.523 -0.5,-1.044 -0.5,-1.159 0,-0.114 -0.19,-0.565 -0.422,-1.001 -0.726,-1.366 -0.713,-1.37 4.639,-1.401 3.244,-0.018 4.055,0.023 4.453,0.229 m 25.33,14.295 c 1.025,0.47 2.554,1.836 2.751,2.457 0.071,0.224 0.285,0.617 0.475,0.874 0.452,0.612 0.496,3.084 0.068,3.873 -0.149,0.275 -0.378,0.727 -0.509,1.005 -0.805,1.711 -3.364,3.272 -5.364,3.272 -1.268,0 -4.421,-1.489 -4.421,-2.088 0,-0.094 -0.183,-0.363 -0.406,-0.597 -0.599,-0.629 -1.147,-2.87 -0.94,-3.848 0.314,-1.481 0.485,-2.01 0.788,-2.437 0.169,-0.239 0.386,-0.567 0.482,-0.729 0.233,-0.397 1.522,-1.362 2.243,-1.681 0.32,-0.142 0.771,-0.345 1,-0.452 0.695,-0.323 2.779,-0.133 3.833,0.351"
       stroke="none"
       fill="#7c1fff"
       fill-rule="evenodd"
       sodipodi:nodetypes="cccssccsssccssccsssccssccsssccssccsscccccscsscccsscscsccccsccccscccccccsssccsccccccccccccssscccscsscccscsscccsscscscscccscsscccccccsccsccscccscssccscccccccccssccccccccssccccccc" />
  </g>
  <g
     inkscape:groupmode="layer"
     id="layer2"
     inkscape:label="Font"
     style="display:inline">
    <g
       aria-label="Sign in with Yahoo"
       transform="scale(1.0059901,0.9940456)"
       id="text7691"
       style="font-size:26.8264px;line-height:1.25;font-family:'Yahoo Sans';-inkscape-font-specification:'Yahoo Sans';display:inline;fill:#ffffff;stroke-width:1.00599">
      <path
         d="m 123.92905,52.57695 c 4.1581,0 6.81391,-2.119286 6.81391,-5.928635 0,-3.192341 -1.69006,-4.587314 -5.15067,-5.66037 l -1.28767,-0.402396 c -1.69006,-0.590181 -2.28024,-1.234015 -2.28024,-2.333897 0,-1.153535 0.85844,-2.01198 2.70947,-2.01198 1.74371,0 3.19234,0.321917 4.66779,0.96575 l 0.13413,-0.08048 V 33.71799 c -1.36814,-0.482875 -3.00456,-0.751139 -4.93606,-0.751139 -3.78252,0 -6.38468,2.092459 -6.38468,5.66037 0,2.924078 1.66324,4.587315 4.45318,5.499413 l 1.3145,0.429222 c 2.06563,0.724313 2.73629,1.153535 2.73629,2.441202 0,1.394973 -1.0194,2.253418 -2.97773,2.253418 -2.11929,0 -3.80935,-0.509701 -5.31163,-1.394973 l -0.13413,0.08048 v 3.594737 c 1.28767,0.643834 3.11186,1.04623 5.63354,1.04623 z"
         id="path12" />
      <path
         d="m 135.11562,35.971408 c 1.36815,0 2.06563,-0.67066 2.06563,-1.985154 0,-1.287667 -0.69748,-1.958327 -2.06563,-1.958327 -1.39497,0 -2.11928,0.67066 -2.11928,1.958327 0,1.314494 0.72431,1.985154 2.11928,1.985154 z m -1.90467,16.256799 h 3.80935 V 37.74195 h -3.80935 z"
         id="path14" />
      <path
         d="m 145.28276,47.184843 c 3.62157,0 6.00912,-1.904674 6.00912,-4.614141 0,-0.858444 -0.26827,-1.63641 -0.64384,-2.226591 h 2.06564 v -2.763119 l -4.42636,0.456049 c -0.85845,-0.37557 -1.90467,-0.590181 -3.00456,-0.590181 -3.54108,0 -5.98228,2.01198 -5.98228,4.936058 0,1.770542 0.91209,3.165515 2.41437,3.970307 -1.28767,0.617007 -2.03881,1.609584 -2.03881,2.924078 0,0.912097 0.4024,1.716889 1.26085,2.226591 -1.50228,0.804792 -2.2266,1.770542 -2.2266,3.05821 0,2.414376 2.19977,3.621564 6.62613,3.621564 4.80192,0 7.48456,-2.01198 7.48456,-5.016537 0,-2.816772 -1.69006,-3.889828 -4.56049,-4.02396 l -4.18492,-0.187785 c -0.88527,-0.02683 -1.28766,-0.160959 -1.28766,-0.751139 0,-0.456049 0.29509,-0.858445 0.96575,-1.153536 0.48287,0.08048 0.99257,0.134132 1.5291,0.134132 z m 0.0268,-2.253417 c -1.44863,0 -2.52168,-0.965751 -2.52168,-2.521682 0,-1.609584 1.07305,-2.521682 2.52168,-2.521682 1.44862,0 2.54851,0.912098 2.54851,2.521682 0,1.555931 -1.09989,2.521682 -2.54851,2.521682 z m -3.27282,8.960017 c 0,-0.643833 0.26826,-1.207188 0.88527,-1.770542 0.13413,0 0.29509,0.02683 0.45605,0.02683 l 4.07761,0.160959 c 1.26084,0.05365 1.71689,0.321917 1.71689,1.180361 0,1.207189 -1.23401,2.146113 -3.83617,2.146113 -2.30707,0 -3.29965,-0.590181 -3.29965,-1.743717 z"
         id="path16" />
      <path
         d="m 154.53784,52.228207 h 3.80935 V 41.443994 c 0.85845,-0.643834 1.71689,-0.992577 2.8436,-0.992577 1.34132,0 2.36072,0.617007 2.36072,2.548508 v 9.228282 h 3.80935 v -9.872116 c 0,-3.380126 -1.87785,-4.936058 -4.66779,-4.936058 -2.14611,0 -3.48743,1.019404 -4.56049,2.09246 l -0.26826,-1.770543 h -3.32648 z"
         id="path18" />
      <path
         d="m 178.30599,35.971408 c 1.36815,0 2.06563,-0.67066 2.06563,-1.985154 0,-1.287667 -0.69748,-1.958327 -2.06563,-1.958327 -1.39497,0 -2.11929,0.67066 -2.11929,1.958327 0,1.314494 0.72432,1.985154 2.11929,1.985154 z m -1.90467,16.256799 h 3.80934 V 37.74195 h -3.80934 z"
         id="path20" />
      <path
         d="m 183.26884,52.228207 h 3.80935 V 41.443994 c 0.85845,-0.643834 1.71689,-0.992577 2.8436,-0.992577 1.34132,0 2.36072,0.617007 2.36072,2.548508 v 9.228282 h 3.80935 v -9.872116 c 0,-3.380126 -1.87785,-4.936058 -4.66779,-4.936058 -2.14611,0 -3.48743,1.019404 -4.56049,2.09246 l -0.26826,-1.770543 h -3.32648 z"
         id="path22" />
      <path
         d="m 207.89544,52.228207 h 3.32647 l 2.57534,-9.523373 2.68264,9.523373 h 3.32647 l 3.88983,-14.298472 V 37.74195 h -3.54109 l -2.17294,9.523372 -2.57533,-9.523372 h -3.00456 l -2.52168,9.496546 -2.17294,-9.496546 h -3.78252 v 0.187785 z"
         id="path24" />
      <path
         d="m 227.55917,35.971408 c 1.36815,0 2.06563,-0.67066 2.06563,-1.985154 0,-1.287667 -0.69748,-1.958327 -2.06563,-1.958327 -1.39497,0 -2.11928,0.67066 -2.11928,1.958327 0,1.314494 0.72431,1.985154 2.11928,1.985154 z m -1.90467,16.256799 h 3.80935 V 37.74195 h -3.80935 z"
         id="path26" />
      <path
         d="m 238.37018,52.496471 c 1.12671,0 2.09246,-0.08048 2.81677,-0.295091 v -2.736293 l -0.16096,-0.05365 c -0.40239,0.08048 -0.96575,0.160958 -1.55593,0.160958 -1.23401,0 -1.87785,-0.37557 -1.87785,-1.502278 v -7.511393 h 3.46061 V 37.74195 h -3.46061 v -3.031383 l -3.80935,0.590181 v 2.441202 h -2.11928 v 2.816772 h 2.11928 v 8.182053 c 0,2.843598 2.09246,3.755696 4.58732,3.755696 z"
         id="path28" />
      <path
         d="m 243.52085,52.228207 h 3.80935 V 41.47082 c 0.85844,-0.67066 1.71689,-1.019403 2.8436,-1.019403 1.34132,0 2.36072,0.617007 2.36072,2.548508 v 9.228282 h 3.80935 v -9.872116 c 0,-3.380126 -1.79737,-4.936058 -4.61414,-4.936058 -2.03881,0 -3.38013,0.938924 -4.39953,1.958328 v -7.350434 l -3.80935,0.724313 z"
         id="path30" />
      <path
         d="m 270.05211,52.228207 h 4.23857 v -7.75283 l 5.92864,-10.971998 v -0.187785 h -3.863 l -3.97031,7.994268 -3.99714,-7.994268 H 264.043 v 0.187785 l 6.00911,11.159783 z"
         id="path32" />
      <path
         d="m 284.4042,52.57695 c 2.09246,0 3.29965,-0.938924 4.02396,-1.958327 l 0.26826,1.609584 h 3.29965 v -9.013671 c 0,-4.184919 -2.28024,-5.794503 -6.33103,-5.794503 -2.06563,0 -3.72887,0.348744 -4.96288,0.885272 v 2.924077 l 0.16095,0.05365 c 1.26084,-0.509701 2.52169,-0.858445 4.2654,-0.858445 2.11929,0 3.05821,0.697487 3.05821,2.870425 v 0.05365 l -2.8436,0.37557 c -3.51426,0.509701 -5.76767,1.555931 -5.76767,4.560488 0,2.816772 2.06563,4.292224 4.82875,4.292224 z m -1.12671,-4.480009 c 0,-1.234015 0.83162,-1.743716 2.89725,-2.065633 l 2.01198,-0.29509 v 2.843598 c -0.56335,0.777966 -1.47545,1.34132 -2.76312,1.34132 -1.44862,0 -2.14611,-0.724313 -2.14611,-1.824195 z"
         id="path34" />
      <path
         d="m 294.89327,52.228207 h 3.80935 V 41.47082 c 0.85844,-0.67066 1.71689,-1.019403 2.8436,-1.019403 1.34132,0 2.36072,0.617007 2.36072,2.548508 v 9.228282 h 3.80935 v -9.872116 c 0,-3.380126 -1.79737,-4.936058 -4.61414,-4.936058 -2.03881,0 -3.38013,0.938924 -4.39953,1.958328 v -7.350434 l -3.80935,0.724313 z"
         id="path36" />
      <path
         d="m 317.05188,52.57695 c 4.21175,0 7.24313,-2.950904 7.24313,-7.618698 0,-4.667794 -3.03138,-7.538219 -7.24313,-7.538219 -4.21174,0 -7.18948,2.870425 -7.18948,7.538219 0,4.667794 2.97774,7.618698 7.18948,7.618698 z m 0,-2.870425 c -2.09246,0 -3.3533,-1.663237 -3.3533,-4.721447 0,-3.058209 1.26084,-4.69462 3.3533,-4.69462 2.11929,0 3.38013,1.636411 3.38013,4.69462 0,3.05821 -1.26084,4.721447 -3.38013,4.721447 z"
         id="path38" />
      <path
         d="m 332.90627,52.57695 c 4.21174,0 7.24312,-2.950904 7.24312,-7.618698 0,-4.667794 -3.03138,-7.538219 -7.24312,-7.538219 -4.21175,0 -7.18948,2.870425 -7.18948,7.538219 0,4.667794 2.97773,7.618698 7.18948,7.618698 z m 0,-2.870425 c -2.09246,0 -3.3533,-1.663237 -3.3533,-4.721447 0,-3.058209 1.26084,-4.69462 3.3533,-4.69462 2.11928,0 3.38012,1.636411 3.38012,4.69462 0,3.05821 -1.26084,4.721447 -3.38012,4.721447 z"
         id="path40" />
    </g>
  </g>
</svg>
