<?xml version="1.0" encoding="UTF-8" standalone="no"?>
<svg
   id="svg"
   version="1.1"
   width="400"
   height="83"
   viewBox="0 0 400 82.999998"
   sodipodi:docname="login_yahoo.svg"
   inkscape:version="1.1.2 (0a00cf5339, 2022-02-04)"
   xmlns:inkscape="http://www.inkscape.org/namespaces/inkscape"
   xmlns:sodipodi="http://sodipodi.sourceforge.net/DTD/sodipodi-0.dtd"
   xmlns="http://www.w3.org/2000/svg"
   xmlns:svg="http://www.w3.org/2000/svg">
  <defs
     id="defs9" />
  <sodipodi:namedview
     id="namedview7"
     pagecolor="#ffffff"
     bordercolor="#666666"
     borderopacity="1.0"
     inkscape:pageshadow="2"
     inkscape:pageopacity="0.0"
     inkscape:pagecheckerboard="0"
     showgrid="false"
     inkscape:zoom="3.345"
     inkscape:cx="403.58744"
     inkscape:cy="30.343797"
     inkscape:window-width="3366"
     inkscape:window-height="1376"
     inkscape:window-x="0"
     inkscape:window-y="0"
     inkscape:window-maximized="1"
     inkscape:current-layer="text7691-3" />
  <g
     id="svgg"
     transform="translate(-0.6863098,-0.6868921)" />
  <g
     inkscape:groupmode="layer"
     id="layer1"
     inkscape:label="Background"
     transform="translate(-0.6863098,-0.6868921)">
    <rect
       style="fill:#ffffff"
       id="rect34"
       width="394.20425"
       height="77.973183"
       x="2.8978729"
       y="2.5593033"
       ry="1.8696282"
       rx="1.4322916" />
  </g>
  <g
     inkscape:groupmode="layer"
     id="layer2"
     inkscape:label="Logo"
     style="display:inline"
     transform="translate(-0.6863098,-0.6868921)">
    <path
       id="path0"
       d="m 5.1863098,0.9258921 c 0,0.149 -0.206,0.26 -0.542,0.292 -0.451,0.044 -0.55,0.129 -0.594,0.511 -0.042,0.364 -0.139,0.458 -0.471,0.458 -0.546,0 -1.393,0.847 -1.393,1.393 0,0.332 -0.094,0.429 -0.458,0.471 -0.382,0.044 -0.467,0.143 -0.511,0.594 -0.032,0.336 -0.143,0.542 -0.292,0.542 -0.207,0 -0.239,4.9469999 -0.239,36.9999999 0,32.053 0.032,37 0.239,37 0.149,0 0.26,0.206 0.292,0.542 0.044,0.451 0.129,0.55 0.511,0.594 0.38,0.044 0.458,0.134 0.458,0.527 0,0.566 0.818,1.337 1.418,1.337 0.305,0 0.405,0.103 0.446,0.458 0.044,0.382 0.143,0.467 0.594,0.511 0.336,0.032 0.542,0.143 0.542,0.292 0,0.208 25.6650002,0.239 195.5000002,0.239 169.835,0 195.5,-0.031 195.5,-0.239 0,-0.149 0.206,-0.26 0.542,-0.292 0.451,-0.044 0.55,-0.129 0.594,-0.511 0.043,-0.37 0.137,-0.458 0.491,-0.458 0.594,0 1.373,-0.768 1.373,-1.353 0,-0.376 0.082,-0.468 0.458,-0.511 0.382,-0.044 0.467,-0.143 0.511,-0.594 0.032,-0.336 0.143,-0.542 0.292,-0.542 0.207,0 0.239,-4.947 0.239,-37 0,-32.053 -0.032,-36.9999999 -0.239,-36.9999999 -0.149,0 -0.26,-0.206 -0.292,-0.542 -0.044,-0.451 -0.129,-0.55 -0.511,-0.594 -0.355,-0.041 -0.458,-0.141 -0.458,-0.446 0,-0.6 -0.771,-1.418 -1.337,-1.418 -0.393,0 -0.483,-0.078 -0.527,-0.458 -0.044,-0.382 -0.143,-0.467 -0.594,-0.511 -0.336,-0.032 -0.542,-0.143 -0.542,-0.292 0,-0.208 -25.665,-0.239 -195.5,-0.239 -169.835,0 -195.5000002,0.031 -195.5000002,0.239 m 388.1070002,4.136 c 0.363,0.252 0.745,0.458 0.847,0.458 0.341,0 1.472,1.239 2.054,2.25 l 0.575,0.9999999 v 33.417 33.417 l -0.569,1 c -0.717,1.261 -1.336,1.88 -2.597,2.597 l -1,0.569 h -154.617 c -105.704,0 -154.671,-0.054 -154.788,-0.171 -0.117,-0.117 -0.043,-0.485 0.238,-1.167 0.225,-0.547 0.411,-1.175 0.413,-1.396 0.002,-0.22 0.183,-0.782 0.402,-1.25 0.219,-0.467 0.453,-1.185 0.521,-1.595 0.067,-0.411 0.221,-0.898 0.342,-1.084 0.121,-0.185 0.382,-0.937 0.582,-1.67 0.199,-0.733 0.466,-1.536 0.593,-1.783 0.127,-0.248 0.313,-0.848 0.414,-1.334 0.1,-0.486 0.288,-1.05 0.417,-1.253 0.129,-0.204 0.339,-0.804 0.467,-1.334 0.128,-0.529 0.427,-1.471 0.666,-2.091 0.238,-0.621 0.433,-1.252 0.433,-1.401 0,-0.15 0.179,-0.654 0.398,-1.121 0.219,-0.467 0.453,-1.184 0.521,-1.592 0.067,-0.408 0.261,-1.01 0.432,-1.337 0.17,-0.327 0.384,-0.986 0.475,-1.463 0.09,-0.478 0.317,-1.167 0.503,-1.533 0.186,-0.365 0.423,-1.06 0.525,-1.544 0.103,-0.484 0.319,-1.143 0.48,-1.464 0.161,-0.321 0.348,-0.921 0.416,-1.333 0.068,-0.413 0.266,-1.032 0.44,-1.376 0.174,-0.343 0.435,-1.093 0.579,-1.666 0.143,-0.573 0.368,-1.209 0.498,-1.413 0.13,-0.205 0.347,-0.9 0.483,-1.545 0.136,-0.646 0.353,-1.341 0.482,-1.545 0.129,-0.205 0.317,-0.768 0.418,-1.253 0.1,-0.484 0.335,-1.179 0.521,-1.544 0.186,-0.365 0.413,-1.055 0.503,-1.532 0.091,-0.478 0.313,-1.152 0.494,-1.499 0.181,-0.347 0.377,-0.949 0.437,-1.338 0.06,-0.388 0.25,-0.987 0.422,-1.331 0.172,-0.344 0.429,-1.094 0.571,-1.667 0.142,-0.573 0.375,-1.298 0.518,-1.612 0.143,-0.314 0.363,-1.009 0.488,-1.546 0.125,-0.537 0.335,-1.142 0.466,-1.346 0.131,-0.204 0.291,-0.671 0.355,-1.037 0.064,-0.367 0.32,-1.155 0.569,-1.75 0.249,-0.596 0.506,-1.418 0.57,-1.826 0.065,-0.408 0.256,-0.971 0.426,-1.25 0.169,-0.279 0.362,-0.845 0.428,-1.258 0.066,-0.412 0.264,-1.05 0.44,-1.416 0.176,-0.367 0.429,-1.137 0.563,-1.712 0.133,-0.575 0.383,-1.325 0.555,-1.667 0.172,-0.342 0.367,-0.921 0.433,-1.288 0.067,-0.367 0.262,-0.976 0.434,-1.354 0.172,-0.378 0.393,-1.044 0.49,-1.479 0.098,-0.436 0.325,-1.116 0.505,-1.511 0.181,-0.396 0.411,-1.118 0.512,-1.604 0.101,-0.487 0.289,-1.053 0.418,-1.257 0.129,-0.204 0.35,-0.8689999 0.491,-1.4759999 0.287,-1.238 0.635,-1.868 1.146,-2.075 0.19,-0.077 64.289,-0.126 142.443,-0.109 l 142.097,0.032 0.662,0.458 M 79.42531,20.182892 c 0.479,0.182 0.553,0.526 0.178,0.837 -0.137,0.114 -0.354,0.56 -0.482,0.991 -0.128,0.431 -0.419,1.153 -0.647,1.605 -0.227,0.452 -0.466,1.061 -0.529,1.355 -0.063,0.293 -0.248,0.706 -0.411,0.917 -0.162,0.21 -0.388,0.757 -0.501,1.216 -0.113,0.458 -0.303,0.946 -0.421,1.083 -0.119,0.137 -0.349,0.662 -0.511,1.167 -0.163,0.504 -0.425,1.104 -0.584,1.333 -0.159,0.229 -0.345,0.673 -0.413,0.986 -0.068,0.313 -0.302,0.905 -0.521,1.316 -0.218,0.411 -0.397,0.868 -0.398,1.014 0,0.147 -0.159,0.528 -0.353,0.846 -0.194,0.318 -0.464,0.955 -0.601,1.416 -0.137,0.461 -0.381,1.026 -0.543,1.255 -0.162,0.23 -0.349,0.679 -0.416,1 -0.067,0.321 -0.266,0.821 -0.442,1.111 -0.176,0.29 -0.43,0.896 -0.564,1.348 -0.134,0.451 -0.47,1.132 -0.746,1.514 l -0.503,0.694 h -4.884 c -5.844,0 -5.774,0.019 -5.09,-1.362 0.242,-0.488 0.535,-1.188 0.65,-1.555 0.116,-0.366 0.303,-0.816 0.416,-1 0.114,-0.183 0.3,-0.633 0.414,-1 0.114,-0.366 0.376,-0.966 0.582,-1.333 0.206,-0.367 0.42,-0.917 0.476,-1.222 0.056,-0.306 0.242,-0.756 0.413,-1 0.17,-0.245 0.365,-0.67 0.431,-0.945 0.067,-0.275 0.34,-0.949 0.608,-1.497 0.267,-0.549 0.486,-1.098 0.486,-1.221 0,-0.122 0.18,-0.536 0.401,-0.919 0.22,-0.383 0.454,-0.958 0.52,-1.279 0.067,-0.321 0.254,-0.773 0.418,-1.004 0.163,-0.231 0.42,-0.844 0.57,-1.361 0.15,-0.517 0.378,-1.027 0.505,-1.133 0.127,-0.106 0.28,-0.431 0.338,-0.722 0.059,-0.292 0.282,-0.905 0.495,-1.364 0.214,-0.458 0.555,-1.267 0.759,-1.797 0.578,-1.502 0.38,-1.453 5.771,-1.453 2.651,0 4.888,0.071 5.129,0.163 m -40.068,11.455 c 0.584,0.402 0.79,0.715 0.911,1.382 0.058,0.321 0.26,0.884 0.449,1.25 0.189,0.367 0.45,1.027 0.581,1.466 0.131,0.44 0.422,1.145 0.647,1.567 0.224,0.422 0.41,0.925 0.413,1.117 0.003,0.193 0.19,0.65 0.416,1.017 0.226,0.367 0.411,0.807 0.411,0.98 10e-4,0.172 0.217,0.772 0.481,1.333 0.265,0.561 0.562,1.321 0.662,1.689 0.182,0.674 1.102,2.081 1.359,2.081 0.077,0 0.19,-0.243 0.253,-0.541 0.062,-0.298 0.321,-0.957 0.575,-1.463 0.254,-0.507 0.517,-1.182 0.584,-1.5 0.068,-0.319 0.256,-0.804 0.42,-1.079 0.163,-0.275 0.418,-0.927 0.567,-1.45 0.149,-0.522 0.34,-0.992 0.425,-1.045 0.084,-0.052 0.273,-0.506 0.419,-1.008 0.146,-0.502 0.451,-1.262 0.677,-1.688 0.227,-0.427 0.412,-0.896 0.412,-1.043 0,-0.148 0.179,-0.606 0.397,-1.017 0.217,-0.412 0.447,-0.988 0.51,-1.279 0.206,-0.953 0.263,-0.965 4.883,-1.024 5.311,-0.069 5.348,-0.052 4.382,1.892 -0.272,0.547 -0.497,1.108 -0.5,1.247 -0.003,0.138 -0.182,0.588 -0.399,1 -0.217,0.411 -0.491,1.048 -0.61,1.414 -0.118,0.366 -0.391,0.996 -0.606,1.4 -0.214,0.404 -0.39,0.854 -0.391,1.001 -10e-4,0.147 -0.151,0.492 -0.335,0.767 -0.184,0.275 -0.414,0.8 -0.512,1.166 -0.098,0.367 -0.397,1.11 -0.665,1.652 -0.268,0.542 -0.487,1.113 -0.487,1.269 0,0.156 -0.146,0.47 -0.324,0.696 -0.178,0.227 -0.415,0.781 -0.527,1.231 -0.111,0.451 -0.34,0.998 -0.509,1.216 -0.169,0.219 -0.307,0.508 -0.307,0.641 0,0.134 -0.262,0.797 -0.583,1.473 -0.321,0.676 -0.583,1.341 -0.583,1.476 0,0.328 -0.356,1.096 -0.507,1.096 -0.066,0 -0.209,0.357 -0.318,0.792 -0.108,0.435 -0.311,0.968 -0.451,1.183 -0.139,0.215 -0.387,0.778 -0.549,1.25 -0.163,0.472 -0.456,1.158 -0.652,1.523 -0.196,0.365 -0.357,0.778 -0.357,0.918 0,0.139 -0.177,0.591 -0.394,1.002 -0.216,0.412 -0.491,1.049 -0.609,1.415 -0.119,0.366 -0.392,0.996 -0.606,1.4 -0.215,0.403 -0.391,0.847 -0.391,0.986 0,0.139 -0.181,0.561 -0.402,0.938 -0.221,0.378 -0.452,0.953 -0.513,1.279 -0.061,0.326 -0.286,0.811 -0.499,1.078 l -0.387,0.486 -4.211,0.05 c -4.834,0.058 -5.307,-0.02 -4.899,-0.81 0.134,-0.26 0.245,-0.571 0.245,-0.69 10e-4,-0.119 0.225,-0.666 0.5,-1.216 0.274,-0.55 0.499,-1.101 0.499,-1.225 0,-0.123 0.226,-0.634 0.501,-1.135 0.275,-0.501 0.5,-1.008 0.5,-1.126 0,-0.118 0.196,-0.582 0.435,-1.031 0.697,-1.308 0.724,-2.464 0.086,-3.772 -0.287,-0.589 -0.521,-1.171 -0.521,-1.293 0,-0.122 -0.18,-0.529 -0.399,-0.904 -0.22,-0.374 -0.49,-1.016 -0.6,-1.425 -0.11,-0.409 -0.338,-0.919 -0.506,-1.133 -0.168,-0.214 -0.358,-0.627 -0.422,-0.918 -0.064,-0.291 -0.331,-0.953 -0.595,-1.471 -0.263,-0.518 -0.478,-1.039 -0.478,-1.157 0,-0.118 -0.176,-0.521 -0.391,-0.896 -0.215,-0.374 -0.487,-1.037 -0.605,-1.473 -0.118,-0.435 -0.277,-0.791 -0.353,-0.791 -0.076,0 -0.248,-0.369 -0.382,-0.82 -0.134,-0.45 -0.424,-1.144 -0.645,-1.541 -0.221,-0.398 -0.451,-0.973 -0.512,-1.278 -0.06,-0.305 -0.252,-0.736 -0.425,-0.957 -0.174,-0.221 -0.369,-0.681 -0.433,-1.022 -0.064,-0.342 -0.252,-0.812 -0.418,-1.045 -0.166,-0.233 -0.384,-0.723 -0.484,-1.089 -0.1,-0.366 -0.341,-0.925 -0.537,-1.243 -0.195,-0.319 -0.465,-0.949 -0.599,-1.402 -0.135,-0.452 -0.351,-0.928 -0.48,-1.058 -0.309,-0.308 -0.044,-0.828 0.472,-0.928 1.254,-0.241 8.401,-0.106 8.796,0.167 m 24.781,14.07 c 1.457,0.535 2.834,1.644 3.307,2.662 0.145,0.312 0.385,0.792 0.534,1.067 0.185,0.342 0.27,0.921 0.27,1.833 0,0.912 -0.085,1.492 -0.27,1.834 -0.149,0.275 -0.377,0.728 -0.509,1.007 -0.233,0.497 -0.933,1.291 -1.804,2.047 -1.911,1.661 -6.952,1.217 -7.788,-0.685 -0.031,-0.073 -0.24,-0.349 -0.463,-0.614 -1.342,-1.594 -1.373,-5.569 -0.054,-6.763 0.179,-0.162 0.325,-0.38 0.325,-0.486 0,-0.195 1.31,-1.215 1.917,-1.491 1.862,-0.85 3.048,-0.957 4.535,-0.411"
       stroke="none"
       fill="#7c1fff"
       fill-rule="evenodd" />
  </g>
  <g
     inkscape:groupmode="layer"
     id="layer3"
     inkscape:label="Font"
     transform="translate(-0.6863098,-0.6868921)">
    <g
       aria-label="Sign in with Yahoo"
       transform="scale(1.0059901,0.99404557)"
       id="text7691-3"
       style="font-size:26.8264px;line-height:1.25;font-family:'Yahoo Sans';-inkscape-font-specification:'Yahoo Sans';display:inline;stroke-width:1.00599">
      <path
         d="m 124.22898,52.770717 c 4.15809,0 6.81391,-2.119285 6.81391,-5.928634 0,-3.192342 -1.69007,-4.587315 -5.15067,-5.660371 l -1.28767,-0.402396 c -1.69006,-0.590181 -2.28024,-1.234014 -2.28024,-2.333897 0,-1.153535 0.85844,-2.01198 2.70946,-2.01198 1.74372,0 3.19234,0.321917 4.6678,0.965751 l 0.13413,-0.08048 v -3.406953 c -1.36815,-0.482876 -3.00456,-0.75114 -4.93606,-0.75114 -3.78252,0 -6.38468,2.09246 -6.38468,5.660371 0,2.924078 1.66323,4.587315 4.45318,5.499412 l 1.31449,0.429223 c 2.06564,0.724312 2.7363,1.153535 2.7363,2.441202 0,1.394973 -1.01941,2.253418 -2.97773,2.253418 -2.11929,0 -3.80935,-0.509702 -5.31163,-1.394973 l -0.13413,0.08048 v 3.594738 c 1.28766,0.643833 3.11186,1.046229 5.63354,1.046229 z"
         id="path573" />
      <path
         d="m 135.41555,36.165175 c 1.36815,0 2.06563,-0.67066 2.06563,-1.985153 0,-1.287668 -0.69748,-1.958328 -2.06563,-1.958328 -1.39497,0 -2.11929,0.67066 -2.11929,1.958328 0,1.314493 0.72432,1.985153 2.11929,1.985153 z m -1.90468,16.256799 h 3.80935 V 37.935718 h -3.80935 z"
         id="path575" />
      <path
         d="m 145.58269,47.378611 c 3.62156,0 6.00911,-1.904675 6.00911,-4.614141 0,-0.858445 -0.26826,-1.636411 -0.64383,-2.226591 h 2.06563 v -2.76312 l -4.42635,0.456049 c -0.85845,-0.375569 -1.90468,-0.590181 -3.00456,-0.590181 -3.54109,0 -5.98229,2.01198 -5.98229,4.936058 0,1.770543 0.9121,3.165515 2.41438,3.970307 -1.28767,0.617008 -2.03881,1.609584 -2.03881,2.924078 0,0.912098 0.4024,1.71689 1.26084,2.226591 -1.50228,0.804792 -2.22659,1.770543 -2.22659,3.05821 0,2.414376 2.19977,3.621564 6.62612,3.621564 4.80193,0 7.48457,-2.01198 7.48457,-5.016537 0,-2.816772 -1.69007,-3.889828 -4.56049,-4.02396 l -4.18492,-0.187785 c -0.88527,-0.02683 -1.28767,-0.160958 -1.28767,-0.751139 0,-0.456049 0.29509,-0.858445 0.96575,-1.153535 0.48288,0.08048 0.99258,0.134132 1.52911,0.134132 z m 0.0268,-2.253418 c -1.44863,0 -2.52169,-0.96575 -2.52169,-2.521681 0,-1.609585 1.07306,-2.521682 2.52169,-2.521682 1.44862,0 2.5485,0.912097 2.5485,2.521682 0,1.555931 -1.09988,2.521681 -2.5485,2.521681 z m -3.27283,8.960018 c 0,-0.643834 0.26827,-1.207188 0.88528,-1.770542 0.13413,0 0.29509,0.02683 0.45604,0.02683 l 4.07762,0.160958 c 1.26084,0.05365 1.71689,0.321917 1.71689,1.180362 0,1.207188 -1.23402,2.146112 -3.83618,2.146112 -2.30707,0 -3.29965,-0.590181 -3.29965,-1.743716 z"
         id="path577" />
      <path
         d="m 154.83777,52.421974 h 3.80935 V 41.637761 c 0.85844,-0.643834 1.71689,-0.992577 2.8436,-0.992577 1.34132,0 2.36072,0.617007 2.36072,2.548508 v 9.228282 h 3.80935 v -9.872115 c 0,-3.380127 -1.87785,-4.936058 -4.66779,-4.936058 -2.14612,0 -3.48744,1.019403 -4.56049,2.092459 l -0.26827,-1.770542 h -3.32647 z"
         id="path579" />
      <path
         d="m 178.60592,36.165175 c 1.36814,0 2.06563,-0.67066 2.06563,-1.985153 0,-1.287668 -0.69749,-1.958328 -2.06563,-1.958328 -1.39498,0 -2.11929,0.67066 -2.11929,1.958328 0,1.314493 0.72431,1.985153 2.11929,1.985153 z m -1.90468,16.256799 h 3.80935 V 37.935718 h -3.80935 z"
         id="path581" />
      <path
         d="m 183.56877,52.421974 h 3.80935 V 41.637761 c 0.85844,-0.643834 1.71689,-0.992577 2.8436,-0.992577 1.34132,0 2.36072,0.617007 2.36072,2.548508 v 9.228282 h 3.80935 v -9.872115 c 0,-3.380127 -1.87785,-4.936058 -4.6678,-4.936058 -2.14611,0 -3.48743,1.019403 -4.56048,2.092459 l -0.26827,-1.770542 h -3.32647 z"
         id="path583" />
      <path
         d="m 208.19536,52.421974 h 3.32648 l 2.57533,-9.523372 2.68264,9.523372 h 3.32648 l 3.88982,-14.298471 v -0.187785 h -3.54108 l -2.17294,9.523372 -2.57533,-9.523372 h -3.00456 l -2.52168,9.496546 -2.17294,-9.496546 h -3.78252 v 0.187785 z"
         id="path585" />
      <path
         d="m 227.8591,36.165175 c 1.36814,0 2.06563,-0.67066 2.06563,-1.985153 0,-1.287668 -0.69749,-1.958328 -2.06563,-1.958328 -1.39497,0 -2.11929,0.67066 -2.11929,1.958328 0,1.314493 0.72432,1.985153 2.11929,1.985153 z m -1.90468,16.256799 h 3.80935 V 37.935718 h -3.80935 z"
         id="path587" />
      <path
         d="m 238.67011,52.690238 c 1.1267,0 2.09245,-0.08048 2.81677,-0.29509 v -2.736293 l -0.16096,-0.05365 c -0.4024,0.08048 -0.96575,0.160959 -1.55593,0.160959 -1.23402,0 -1.87785,-0.37557 -1.87785,-1.502279 V 40.75249 h 3.46061 v -2.816772 h -3.46061 v -3.031384 l -3.80935,0.590181 v 2.441203 h -2.11928 v 2.816772 h 2.11928 v 8.182052 c 0,2.843599 2.09246,3.755696 4.58732,3.755696 z"
         id="path589" />
      <path
         d="m 243.82078,52.421974 h 3.80934 V 41.664587 c 0.85845,-0.67066 1.71689,-1.019403 2.8436,-1.019403 1.34132,0 2.36073,0.617007 2.36073,2.548508 v 9.228282 h 3.80934 v -9.872115 c 0,-3.380127 -1.79736,-4.936058 -4.61414,-4.936058 -2.0388,0 -3.38012,0.938924 -4.39953,1.958327 v -7.350434 l -3.80934,0.724313 z"
         id="path591" />
      <path
         d="m 270.35204,52.421974 h 4.23857 v -7.75283 l 5.92863,-10.971998 v -0.187784 h -3.863 l -3.97031,7.994267 -3.99713,-7.994267 h -4.34588 v 0.187784 l 6.00912,11.159783 z"
         id="path593" />
      <path
         d="m 284.70413,52.770717 c 2.09245,0 3.29964,-0.938924 4.02396,-1.958327 l 0.26826,1.609584 h 3.29965 v -9.01367 c 0,-4.184919 -2.28025,-5.794503 -6.33103,-5.794503 -2.06564,0 -3.72887,0.348743 -4.96289,0.885271 v 2.924078 l 0.16096,0.05365 c 1.26084,-0.509702 2.52168,-0.858445 4.2654,-0.858445 2.11928,0 3.05821,0.697486 3.05821,2.870425 v 0.05365 l -2.8436,0.375569 c -3.51426,0.509702 -5.76768,1.555931 -5.76768,4.560488 0,2.816772 2.06564,4.292224 4.82876,4.292224 z m -1.12671,-4.480009 c 0,-1.234014 0.83162,-1.743716 2.89725,-2.065632 l 2.01198,-0.295091 v 2.843599 c -0.56336,0.777965 -1.47545,1.34132 -2.76312,1.34132 -1.44863,0 -2.14611,-0.724313 -2.14611,-1.824196 z"
         id="path595" />
      <path
         d="m 295.1932,52.421974 h 3.80935 V 41.664587 c 0.85844,-0.67066 1.71688,-1.019403 2.84359,-1.019403 1.34132,0 2.36073,0.617007 2.36073,2.548508 v 9.228282 h 3.80935 v -9.872115 c 0,-3.380127 -1.79737,-4.936058 -4.61414,-4.936058 -2.03881,0 -3.38013,0.938924 -4.39953,1.958327 v -7.350434 l -3.80935,0.724313 z"
         id="path597" />
      <path
         d="m 317.35181,52.770717 c 4.21174,0 7.24313,-2.950904 7.24313,-7.618697 0,-4.667794 -3.03139,-7.538219 -7.24313,-7.538219 -4.21175,0 -7.18948,2.870425 -7.18948,7.538219 0,4.667793 2.97773,7.618697 7.18948,7.618697 z m 0,-2.870424 c -2.09246,0 -3.3533,-1.663237 -3.3533,-4.721447 0,-3.05821 1.26084,-4.69462 3.3533,-4.69462 2.11928,0 3.38012,1.63641 3.38012,4.69462 0,3.05821 -1.26084,4.721447 -3.38012,4.721447 z"
         id="path599" />
      <path
         d="m 333.20619,52.770717 c 4.21175,0 7.24313,-2.950904 7.24313,-7.618697 0,-4.667794 -3.03138,-7.538219 -7.24313,-7.538219 -4.21174,0 -7.18947,2.870425 -7.18947,7.538219 0,4.667793 2.97773,7.618697 7.18947,7.618697 z m 0,-2.870424 c -2.09246,0 -3.3533,-1.663237 -3.3533,-4.721447 0,-3.05821 1.26084,-4.69462 3.3533,-4.69462 2.11929,0 3.38013,1.63641 3.38013,4.69462 0,3.05821 -1.26084,4.721447 -3.38013,4.721447 z"
         id="path601" />
    </g>
  </g>
</svg>
